<svg width="49" height="50" viewBox="0 0 49 50" xmlns="http://www.w3.org/2000/svg"><path d="M0 0h49v50H0V0zm35.416 13.198h-3.15v-.346c0-1.02-.824-1.852-1.84-1.852-1.013 0-1.838.83-1.838 1.852v.346H20.42v-.346A1.85 1.85 0 0 0 18.58 11c-1.014 0-1.84.83-1.84 1.852v.346h-3.148a.595.595 0 0 0-.592.596v22.61c0 .33.266.596.592.596h21.824a.595.595 0 0 0 .592-.597v-22.61a.594.594 0 0 0-.592-.595zm-5.643-.346c0-.363.293-.66.654-.66.363 0 .655.297.655.66v2.826c0 .364-.292.66-.655.66a.657.657 0 0 1-.654-.66v-2.826zm-11.847 0c0-.363.293-.66.654-.66a.66.66 0 0 1 .656.66v2.826a.66.66 0 0 1-.656.66.657.657 0 0 1-.654-.66v-2.826zm16.897 6l-.03-.002H14.216l-.03.003V14.39h2.555v.427a2.2 2.2 0 0 0-.34 1.175 2.19 2.19 0 0 0 2.18 2.198 2.19 2.19 0 0 0 2.184-2.198 2.19 2.19 0 0 0-.343-1.175v-.426h8.17v.428a2.19 2.19 0 0 0-.344 1.175 2.19 2.19 0 0 0 2.182 2.198 2.19 2.19 0 0 0 1.84-3.372v-.426h2.556v4.463zm0 16.954H14.185v-14.51l.03.003h20.578c.01 0 .02-.004.03-.005v14.51zm-17.32-4.39c-.852 0-1.524.705-1.524 1.55a1.53 1.53 0 0 0 1.52 1.548 1.53 1.53 0 0 0 1.538-1.55c-.013-.843-.7-1.547-1.538-1.547zm-1.436-4.45v2.02a5.415 5.415 0 0 1 3.785 1.612 5.55 5.55 0 0 1 1.6 3.826h2.02c-.063-4.094-3.34-7.42-7.405-7.46zM16.08 23v2.022c5.093.05 9.246 4.246 9.31 9.402h2.006C27.346 28.156 22.29 23.05 16.08 23z" fill="#FCE376" fill-rule="evenodd"/></svg>