<svg xmlns="http://www.w3.org/2000/svg" width="23" height="32" viewBox="0 0 23 32"><path d="M0 16.203q0 1.11 1.156 1.89 2.11 1.485 6.375 1.485 1.924 0 3.565-.328 1.734-.375 2.828-1.172t1.094-1.875q0-.328-.125-.656 2.22-.547 3.485-1.477t1.266-2.133q0-.297-.093-.64 3.656-1.298 3.656-3.5 0-1.407-1.594-2.5-3.126-2.08-9.157-2.08-2.844 0-5.156.5-2.485.5-4.024 1.595t-1.54 2.484q0 .828.517 1.516Q.36 10.39.36 11.937q0 1.203 1.172 2.11-1.53.89-1.53 2.155zM.64 21q0 1.172 1.446 1.836t3.633.664q2.217 0 3.67-.664T10.844 21q0-.438-.28-.734t-.72-.297q-.36 0-.64.25t-.36.607q-.313.25-1.172.46T5.72 21.5q-1.767 0-2.86-.5.25-.25.273-.64t-.164-.657q-.25-.344-.65-.422t-.74.143Q.64 20.047.64 21zM2 16.203q0-.016.203-.188.14-.14.602-.36t1.023-.374l.125-.06q2.594.86 6.047.86 1.516 0 2.75-.174l.28.25q-.14.25-.67.53-.642.345-1.985.61t-2.844.266-2.85-.265-2.01-.61q-.53-.233-.67-.483zm.125 8.985q0 1.016 1.148 1.563t2.852.55q1.734 0 2.906-.548t1.174-1.562q0-.406-.297-.72t-.703-.312q-.75 0-.984.766-.626.39-2.095.39-1.28 0-2.047-.39-.234-.766-.984-.766-.406 0-.688.297t-.28.734zm.22-13.25q0-.125.155-.297.39-.482 1.516-.936 3.078 1.64 8.438 1.64 2.734 0 5.14-.5v.095q0 .233-.296.483-.656.578-2.438 1.094-1.938.578-4.86.578-2.937 0-4.874-.578-1.86-.516-2.484-1.094-.297-.234-.297-.484zm1.39-4.14q0-.282.374-.626.717-.672 2.857-1.297 2.28-.672 5.484-.672 3.22 0 5.53.672 2.158.625 2.86 1.297.36.36.36.625t-.36.594q-.702.674-2.86 1.315-2.31.672-5.53.672-3.202 0-5.483-.672-2.156-.625-2.86-1.313-.374-.327-.374-.593z" fill="#FFF" fill-rule="evenodd"/></svg>