<svg xmlns="http://www.w3.org/2000/svg" width="45" height="32" viewBox="0 0 45 32"><path d="M0 19.14q0 2.798 1.664 5t4.305 2.94l-1.1 2.827q-.127.36.232.36H8.65L6.28 37.28h.485l7.266-9.438q.1-.11.038-.227t-.234-.117h-3.656l4.156-7.75q.186-.36-.236-.36h-4.94q-.233 0-.39.25l-1.78 4.802q-1.797-.453-2.97-1.93t-1.17-3.367q0-2.108 1.405-3.64t3.514-1.78l.844-.048q.297 0 .375-.234l.127-.98q.264-2.7 2.288-4.54t4.775-1.84q2.72 0 4.774 1.837t2.335 4.54l.125.983q0 .28.297.28h2.688q2.234 0 3.844 1.602t1.61 3.82q0 2.176-1.494 3.777t-3.63 1.71q-.33 0-.33.295v2.234q0 .28.33.28 2.204-.063 4.04-1.195t2.898-3.016 1.064-4.088q0-1.827-.72-3.36Q35.91 13.38 35.91 10.3q0-2.373-1.18-4.396T31.525 2.7t-4.398-1.18q-1.797 0-3.492.75t-2.93 2.077Q18.69 3.27 16.175 3.27q-3.548 0-6.29 2.192t-3.51 5.62q-2.765.64-4.57 2.906T0 19.14zm13.14 17.032q0 .422.267.82t.813.555q.22.047.406.047 1.078 0 1.328-1.016l.22-.984q.155-.64-.142-1.14t-.875-.61q-.53-.172-1.047.117t-.688.86l-.22.983q-.062.28-.062.375zm.89-37.516q0 .578.423 1L15.53.75q.392.39.923.438.516.078 1.016-.375t.5-1.063q0-.578-.43-1L16.5-2.344q-.406-.406-1-.406-.625 0-1.047.406t-.422 1zm.423 32.672q0 .563.406.97t.962.405q.594 0 .984-.39t.39-.985q0-.578-.39-.97t-.984-.39-.984.39-.39.97zm1.03-3.78q-.03.374.228.78t.76.5q.58.156 1.068-.094t.688-.938l.44-1.5q.17-.547-.118-1.047t-.882-.68q-.547-.17-1.063.134t-.69.882l-.374 1.5q-.048.202-.048.452zm4.61 3.577q0 .422.25.805t.767.54q.078 0 .234.03t.234.03q1.016 0 1.266-1.093l.234-1q.172-.53-.117-1.047t-.85-.688q-.62-.156-1.13.133t-.68.883l-.154.984q0 .03-.022.188t-.022.234zm1.235-4.922q0 .578.406.953.375.406.97.406t.983-.39.39-.97q0-.594-.39-.984t-.984-.39-.984.39-.398.984zm1.72-20.172q1.67-1.602 4.077-1.602 2.453 0 4.18 1.71t1.727 4.165q0 1.64-.78 3.016-2.407-2.407-5.86-2.407h-.516q-.734-2.97-2.828-4.877zm2.655-8.78q0 .6.414 1.02t1.008.42.992-.41.398-1.024V-6.18q0-.61-.398-1.024t-.992-.414-1.008.42-.414 1.018v3.438zM35 1.07q0 .61.39 1 .345.39.915.43t1.055-.43L39.766-.34q.438-.407.438-1t-.438-1q-.406-.44-1-.44-.578 0-.97.437L35.392.063q-.39.39-.39 1zm1.297 19.86q0 .577.422 1l1.07 1.046q.454.42 1.03.42l.033.03q.546 0 .905-.45.44-.408.44-1 0-.58-.44-1.018l-1.03-1.03q-.453-.452-1.016-.452-.594 0-1.008.43t-.414 1.022zM38.734 10.3q0 .61.438.983.39.44 1 .44h3.438q.594 0 1.016-.414t.422-1.01-.414-.99-1.023-.4h-3.43q-.61 0-1.023.4t-.413.99z" fill="#FFF" fill-rule="evenodd"/></svg>