<svg xmlns="http://www.w3.org/2000/svg" width="35" height="32" viewBox="0 0 35 32"><path d="M0 19.22q0-2.892 1.813-5.142t4.64-2.89q.735-3.44 3.454-5.65t6.25-2.21q3.484 0 6.195 2.125t3.54 5.5h.562q2.25 0 4.14 1.102t2.978 3.008 1.086 4.156q0 3.342-2.29 5.732t-5.616 2.5q-.297 0-.297-.28v-2.235q0-.28.297-.28 2.11-.173 3.61-1.743t1.5-3.695q0-2.235-1.595-3.845t-3.813-1.61h-2.72q-.296 0-.358-.296l-.125-.954q-.17-1.78-1.162-3.227t-2.555-2.267-3.375-.82q-2.75 0-4.773 1.82t-2.29 4.54l-.108.905q0 .233-.266.233l-.874.126q-2.11.172-3.523 1.72t-1.414 3.67q0 2.173 1.476 3.743t3.617 1.695q.297 0 .297.28v2.235q0 .282-.298.282-1.64-.078-3.125-.75t-2.555-1.766T.627 22.35t-.625-3.133zM9.03 30.5q0-.078.032-.22t.03-.187l.454-1.72q.172-.562.664-.85t1.07-.118q.563.172.86.664t.124 1.07l-.406 1.686q-.328 1.094-1.266 1.094-.063 0-.148-.007t-.188-.023-.164-.016q-.53-.156-.797-.57T9.03 30.5zm2.204-8.03q0-.064.023-.19t.023-.155l.5-1.75q.156-.484.53-.742t.782-.258q.063 0 .133.008t.156.023.135.016q.563.172.852.664t.117 1.07l-.406 1.672q-.172.688-.672.977t-1.078.04q-.547-.157-.82-.564t-.273-.81zm2.047 13.25q0-.08.033-.212t.03-.195l.485-1.656q.156-.594.664-.898t1.087-.135q.562.172.843.68t.11 1.086l-.422 1.735q-.265 1.016-1.327 1.016-.125 0-.406-.062-.547-.095-.82-.51t-.273-.85zm2.237-7.954q0-.14.063-.422l.452-1.72q.172-.562.68-.85t1.086-.118q.563.156.844.648t.094 1.086l-.406 1.656q-.313 1.125-1.203 1.125-.11 0-.516-.092-.545-.11-.82-.492t-.27-.82zm4.703 2.797q0-.172.046-.406l.47-1.656q.17-.592.68-.896t1.054-.148q.578.172.883.68t.148 1.055l-.482 1.767q-.25 1.016-1.313 1.016-.234 0-.438-.047-.5-.094-.766-.508t-.28-.852zm2.296-7.938q0-.078.078-.438l.5-1.72q.094-.53.484-.788t.813-.23q.11-.015.408.048.547.124.86.64.296.422.124 1.078l-.405 1.72q-.328 1.077-1.266 1.077-.156 0-.563-.094-.516-.156-.773-.523t-.258-.773z" fill="#FFF" fill-rule="evenodd"/></svg>