<svg xmlns="http://www.w3.org/2000/svg" width="35" height="32" viewBox="0 0 35 32"><path d="M0 19.172q0 3.328 2.32 5.72t5.664 2.546q.28 0 .28-.28v-2.235q0-.28-.28-.28-2.14-.11-3.64-1.704t-1.5-3.768q0-2.063 1.405-3.594t3.482-1.782l.89-.047q.33 0 .33-.313l.093-.89q.266-2.704 2.29-4.524t4.757-1.82q2.72 0 4.75 1.82t2.313 4.523l.125.97q0 .28.298.28h2.688q2.22 0 3.844 1.594t1.625 3.782q0 2.172-1.508 3.766t-3.633 1.703q-.328 0-.328.283v2.234q0 .28.328.28 2.172-.062 4-1.187t2.883-3.01 1.055-4.07q0-2.233-1.11-4.116t-3.015-2.97T26.267 11h-.532q-.813-3.345-3.508-5.47t-6.133-2.125q-3.516 0-6.25 2.18t-3.5 5.586q-2.766.643-4.555 2.885T0 19.17zm9.078 12q.234.53.766.766.5.25 1.04.03t.74-.75q.25-.546.04-1.07t-.758-.726q-.5-.266-1.023-.047t-.773.78q-.234.407-.03 1.017zm1.047-4.703q0 .39.258.756t.773.54q.484.28 1.03.022t.735-.993l1.5-5.64q.158-.626-.13-1.118t-.884-.603q-.203-.047-.406-.047-.407 0-.79.25t-.54.734l-1.468 5.657q-.078.36-.078.438zm3.11 9.31q0 .297.093.484.22.547.75.75.234.125.547.125.156 0 .5-.095.547-.203.79-.75t-.01-1.094-.74-.765-1.04 0q-.47.203-.68.594t-.21.75zm1.218-4.343q0 .922 1.047 1.22.28.062.406.062.375 0 .64-.126.517-.203.704-.953l2.78-10.483q.157-.594-.1-1.078t-.82-.64q-.204-.05-.454-.05-.406 0-.805.25t-.49.735L14.515 30.94q-.063.343-.063.5zm5.72-.766q0 .298.124.53.203.486.734.736.283.11.58.11.156 0 .5-.095.53-.202.766-.733.188-.547-.016-1.047t-.704-.75q-.563-.265-1.086-.046t-.773.78q-.125.235-.125.517zm1.202-4.28q0 .36.266.75t.75.547q.393.078.455.078.234 0 .61-.172.5-.234.67-.875l1.5-5.564q.048-.422.048-.438 0-.39-.258-.766t-.758-.516q-.22-.047-.438-.047-.407 0-.78.24t-.518.743l-1.5 5.594z" fill="#FFF" fill-rule="evenodd"/></svg>