<svg xmlns="http://www.w3.org/2000/svg" width="26" height="32" viewBox="0 0 26 32"><path d="M0 18.64q0-.562.39-.93t1.064-.366h9.516q.672 0 1.063.367t.39.93q0 .69-.382 1.07t-1.07.385H1.457q-.672 0-1.063-.383t-.39-1.07zm0-9.86q0-.562.39-.92t1.064-.36h4.938q.672 0 1.07.36t.398.92q0 .673-.398 1.07t-1.07.4H1.454q-.672 0-1.063-.392T0 8.78zm1.64 14.783q0-.547.462-1.008t1.008-.46q.64 0 1.04.444t.397 1.02q0 .69-.383 1.08t-1.055.39q-.58 0-1.025-.406T1.64 23.56zm2.376-9.875q0-.578.367-1.023t.898-.445q.658 0 1.065.445t.406 1.023q0 .688-.39 1.078t-1.08.39q-.56 0-.912-.397t-.352-1.07zm1.64 9.875q0-.578.406-1.023t1.063-.445h6.39l1.47 1.47q0 .655-.445 1.062t-1.023.406h-6.39q-.69 0-1.08-.398t-.39-1.07zm2.203-9.875q0-.547.46-1.008t1.007-.46h6.39q.657 0 1.056.444t.398 1.023q0 .688-.39 1.078t-1.063.39h-6.39q-.58 0-1.024-.405t-.445-1.063zM9.123 8.78q0-.562.398-.92t1.07-.36h9.516q.562 0 1.015.375t.453.906q0 .658-.445 1.065t-1.022.406h-9.516q-.688 0-1.078-.397t-.39-1.07zm4.39 9.86q0-.53.454-.913t1.015-.383 1.016.383.453.914q0 .658-.445 1.057t-1.024.398-1.023-.398-.444-1.055zm2.563 4.923q0-.578.398-1.023t1.055-.445h3.11q.656 0 1.055.438t.398 1.03q0 .69-.383 1.08t-1.07.39h-3.11q-.67 0-1.062-.39t-.39-1.08zm1.453-4.922q0-.53.454-.912T19 17.344h5.11q.546 0 .905.375t.36.92q0 .672-.353 1.063t-.914.39h-5.11q-.577 0-1.022-.397t-.445-1.055zm.736-4.95q0-.548.46-1.01t1.01-.46H23q.532 0 .907.453t.375 1.016q0 .67-.36 1.07t-.92.397h-3.267q-.578 0-1.023-.406t-.445-1.062zm4.562-4.908q0-.546.367-.913t.914-.368q.67 0 1.07.36t.396.92q0 .673-.398 1.07t-1.07.4q-.564 0-.923-.4t-.36-1.07z" fill="#FFF" fill-rule="evenodd"/></svg>