<svg xmlns="http://www.w3.org/2000/svg" width="13" height="32" viewBox="0 0 13 32"><path d="M.047 15.22v-.032q-.016-.203.008-.61t.164-1.343.412-1.922.852-2.25T2.85 6.657t2.087-2.32 2.89-2.07q.392-.22.82-.094t.634.516q.22.39.103.826t-.508.656Q5.595 5.97 3.83 9.25q1.343-.624 2.718-.624 2.688 0 4.61 1.914t1.92 4.602q0 .203-.007.398t-.07.86-.186 1.28-.39 1.547-.634 1.766-.97 1.836-1.344 1.865-1.805 1.75-2.31 1.586q-.235.14-.517.14-.64 0-.97-.576-.218-.39-.093-.82t.515-.633Q7.655 24.267 9.39 21q-1.36.64-2.846.64-1.734 0-3.227-.86T.943 18.44t-.898-3.22zm2.828-.08q0 1.532 1.078 2.61t2.594 1.078q1.422 0 2.477-.945t1.21-2.352l.017-.373q0-.063.018-.078-.016-1.5-1.102-2.54T6.548 11.5q-1.39 0-2.43.906t-1.21 2.266l-.032.422v.047z" fill="#FFF" fill-rule="evenodd"/></svg>