<svg xmlns="http://www.w3.org/2000/svg" width="28" height="32" viewBox="0 0 28 32"><path d="M0 11.797q0-2.344 1.477-4.195T5.22 5.25Q5.86 2.437 8.1.64t5.133-1.796q2.813 0 5.03 1.758T21.14 5.08h.453q2.813 0 4.797 1.96t1.985 4.757q0 1.5-.617 2.836t-1.71 2.29v.046q0 1.483-.93 2.647t-2.337 1.477q-.357 1.563-1.514 2.64t-2.72 1.33q.72.858.72 1.89 0 1.203-.852 2.063t-2.055.86-2.056-.86-.852-2.063q0-.484.173-.953h-.172q-1.452 0-2.5-1.046t-1.046-2.5q0-1 .5-1.78-1.297-.72-1.875-2.08h-2.13v-.015q-2.687-.173-4.546-2.126T-.004 11.8zm2.328-.406q0 2 1.406 3.408t3.39 1.406q1.235 0 2.282-.563.297 1.86 1.734 3.095t3.375 1.234q2.172 0 3.703-1.53 1.03 1.186 2.563 1.186 1.424 0 2.43-1.008t1.01-2.43q1-.672 1.578-1.727t.578-2.29q0-1.982-1.422-3.365T21.53 7.42q-1.39 0-2.546.735.14-.61.14-1.313 0-2.406-1.718-4.094T13.25 1.06q-2.344 0-4.047 1.625t-1.78 3.953q-.048 0-.142-.008t-.154-.008q-1.97 0-3.383 1.398T2.33 11.387z" fill="#FFF" fill-rule="evenodd"/></svg>