<svg xmlns="http://www.w3.org/2000/svg" width="35" height="32" viewBox="0 0 35 32"><path d="M0 16.828q0-.563.39-.938t.954-.375h20.14q.548 0 .907.367t.36.945q0 .547-.36.906t-.904.36H1.346q-.565 0-.955-.36T0 16.827zM4.03 12q0-.547.392-.922.375-.375.938-.375h20.156q.53 0 .898.375t.367.922-.365.93-.898.383H5.36q-.547 0-.938-.383t-.39-.93zm2.69 9.563q0-.53.405-.906.36-.36.906-.36h20.174q.563 0 .938.36t.376.906-.383.938-.93.393H8.03q-.546 0-.93-.39t-.382-.94zm17.64-4.735q0-.578.366-.945t.945-.367h7.533q.578 0 .945.375t.367.94q0 .547-.375.906t-.94.36h-7.53q-.578 0-.945-.36t-.367-.906z" fill="#FFF" fill-rule="evenodd"/></svg>