<svg xmlns="http://www.w3.org/2000/svg" width="35" height="32" viewBox="0 0 35 32"><path d="M0 19.14q0-2.874 1.797-5.124t4.563-2.89q.78-3.423 3.516-5.618t6.266-2.195q3.453 0 6.148 2.14t3.508 5.485h.547q2.25 0 4.156 1.086T33.52 15t1.11 4.142q0 2.203-1.056 4.078t-2.89 3.008-4.023 1.195H8q-3.343-.156-5.67-2.547T0 19.142zm2.844 0q0 2.173 1.508 3.774T8 24.624h18.656q2.14-.108 3.656-1.71t1.516-3.773q0-2.186-1.625-3.787t-3.86-1.602H23.64q-.28 0-.28-.296l-.124-.953q-.28-2.702-2.328-4.53T16.14 6.14q-2.733 0-4.757 1.83t-2.29 4.53l-.124.953q0 .297-.33.297h-.875Q5.67 14 4.257 15.53t-1.414 3.61z" fill="#FFF" fill-rule="evenodd"/></svg>