<svg xmlns="http://www.w3.org/2000/svg" width="24" height="32" viewBox="0 0 24 32"><path d="M0 15.14q0-2.39.938-4.577T3.46 6.79t3.782-2.53 4.586-.946h1.906q.39.11.39.47l.08 1.468q.093 3.172 2.28 5.406t5.313 2.36l1.375.108q.406 0 .406.39v1.626q.016 3.203-1.555 5.93t-4.28 4.313-5.915 1.586q-2.438 0-4.633-.936T3.43 23.51t-2.5-3.773T0 15.143zm3.047 0q0 1.907.758 3.595t1.984 2.828 2.81 1.805 3.227.664q1.452 0 2.93-.57t2.74-1.594 2.18-2.617 1.18-3.482q-4.077-.844-6.538-3.492T11.482 6.05q-2.36.124-4.32 1.452t-3.04 3.368-1.073 4.27z" fill="#FFF" fill-rule="evenodd"/></svg>