<svg xmlns="http://www.w3.org/2000/svg" width="27" height="32" viewBox="0 0 27 32"><path d="M0 23.75q0-1.97 1.133-3.484t3.023-2.11Q4.953 15.438 7.47 14v-.576q0-3.64 2.303-6.414t5.836-3.43q.89-.157 1.796-.157h.047q.516 0 1.172.078.64.05 1.22.19l1.515.47q.33.17.267.437l-.22 1.172q-.187.796-.187 1.61 0 .873.273 1.787t.828 1.797 1.518 1.61 2.21 1.1l1.19.345q.28.062.28.296 0 .094-.016.125l-.296 1.14q-.14.61-.36 1.22-.374 1.095-1.17 2.28 0-.014-.017-.014-1.095 1.578-2.735 2.625.344.845.344 2.064 0 2.47-1.728 4.21t-4.148 1.743H5.97q-2.422 0-4.195-1.766T.002 23.753zm3.297 0q0 1.125.773 1.914t1.898.79H17.39q1.078 0 1.867-.798t.79-1.906q0-1.078-.79-1.867t-1.867-.79h-2.188q-.266 0-.422-.374l-.14-1.065q-.173-1.438-1.243-2.406t-2.523-.97q-1.422 0-2.46.97T7.2 19.655l-.172.922q0 .375-.313.375l-1.047.14q-1.03.095-1.703.853t-.672 1.805zm7.375-10.672h.203q2.313 0 4.148 1.305t2.57 3.492q1.938 0 3.39 1.203 1.737-1.078 2.55-2.922-2.594-1.313-4.055-3.75t-1.46-5.188v-.563q-.08 0-.204-.008t-.203-.008q-1.53 0-2.953.654T12.25 9.17l-.047-.03q-1.36 1.687-1.53 3.937z" fill="#FFF" fill-rule="evenodd"/></svg>