<svg xmlns="http://www.w3.org/2000/svg" width="36" height="32" viewBox="0 0 36 32"><path d="M0 15.594q0-.594.453-1.016.422-.422 1.03-.422h3.44q.593 0 1.007.422t.414 1.016q0 .625-.414 1.047t-1.008.424H1.484q-.625 0-1.055-.422T0 15.595zM4.875 3.906q0-.578.406-1.03.47-.423 1.096-.423.53 0 .984.422l2.42 2.47q.423.39.423 1 0 .593-.414 1.007t-.994.414q-.64 0-1.016-.422l-2.5-2.406q-.405-.438-.405-1.03zM9.22 15.594q0-1.766.71-3.398t1.906-2.813 2.836-1.89 3.422-.712q2.39 0 4.438 1.197t3.234 3.227 1.188 4.39q0 .376-.047.704-.703-.422-1.61-.422-.608 0-1.202.25.016-.172.016-.53 0-2.44-1.764-4.165t-4.25-1.726q-2.47 0-4.227 1.727t-1.76 4.165v.297q-.733.048-1.405.423-.016.016-.172.125t-.313.227-.392.313-.438.398q-.172-.797-.172-1.78zm.046 6.094v-.25q-.016-.234.03-.547.126-.89.704-1.7.328-.407.453-.517.016-.047.063-.094l.063-.064q.06-.03.2-.172.048-.063.134-.125t.117-.095q.126-.125.235-.172l.28-.188q.36-.234.83-.234h.046q.25 0 .44.048.077.03.22.11v.015q.357.156.57.477t.21.694q0 .422-.235.703-.156.22-.375.39-.046.017-.1.048t-.07.03l-.095.064q-.094.076-.164.14t-.18.18-.186.226-.148.258-.086.29v.25q.093.374.187.593.172.344.563.734.03.048.406.423 2.156 1.953 2.016 4.172-.047.75-.352 1.445t-.71 1.173-.657.71-.422.345q-.014.016-.092.07t-.125.07q-.203.094-.36.11-.218.03-.327.03-.75 0-1.188-.5-.36-.438-.297-.984t.548-.89l.03-.032q.032-.03.08-.07t.116-.102.14-.14.142-.173.14-.195.142-.227.117-.25.078-.273.03-.29q.048-.5-.25-1-.124-.265-.374-.546-.173-.203-.25-.266l-.25-.297q-.048-.03-.118-.094t-.1-.08q-.376-.344-.564-.594-.313-.39-.406-.53-.484-.657-.656-1.298-.11-.36-.125-.532 0-.047-.03-.133t-.03-.148zm6.468-.563q0-.14.016-.234.063-.545.328-1.07t.586-.88.625-.634.52-.414l.204-.124q.375-.234.828-.234.28 0 .5.047.016 0 .086.04t.1.07q.032 0 .048.015.016 0 .125.078.5.297.626.906 0 .046.008.11t.008.076q0 .078-.03.195t-.032.15q-.172.562-.703.827-.83.547-.876 1.156-.015.203 0 .36.064.296.28.655.283.406.408.53.392.392.47.454.313.282.78.845 1.36 1.625 1.235 3.328-.047.75-.352 1.453t-.71 1.164-.672.71-.422.345l-.203.14q-.266.095-.344.11-.28.03-.328.03h-.047q-.203 0-.313-.03-.047 0-.133-.023t-.118-.023q-.016 0-.047-.016t-.063-.04-.047-.022q-.375-.265-.438-.343-.39-.454-.313-.993t.563-.883l.047-.063q.063-.047.148-.133l.195-.195.21-.265.196-.32.148-.367.07-.406q.03-1-1.155-2.11-.47-.42-.734-.718-1.39-1.64-1.28-3.25zM16.64 2.53V-.92q0-.61.43-1.03t1.024-.423q.61 0 1.03.422t.423 1.03v3.453q0 .595-.422.985t-1.03.39q-.595 0-1.024-.39t-.43-.984zm5.594 18.36q.063-.546.328-1.07t.586-.882.625-.633.508-.414l.22-.123.173-.125q.28-.108.625-.108.844 0 1.28.64.126.173.173.376.03.063.03.14v.19q0 .78-.75 1.17-.795.532-.873 1.157-.094.844 1.14 2 2.19 1.938 2.048 4.172-.047.75-.352 1.444t-.72 1.172-.655.71-.414.345q-.406.25-.688.266-.078.016-.25.016-.75 0-1.156-.5-.376-.437-.314-.983t.53-.89q.08-.033.298-.236t.477-.64.29-.876q.048-1-1.17-2.11-1.03-.905-1.564-1.937-.563-1.094-.422-2.266zm3.813-14.546q0-.625.375-1l2.438-2.47q.453-.42 1.016-.42.594 0 1.023.43t.43 1.022q0 .625-.44 1.03l-2.47 2.407q-.452.422-1.015.422-.578 0-.97-.414t-.39-1.006zm3.844 9.25q0-.547.44-1.016.39-.422.97-.422h3.437q.594 0 1.04.43t.444 1.008q0 .61-.437 1.04t-1.047.43h-3.438q-.61 0-1.008-.423t-.4-1.045z" fill="#FFF" fill-rule="evenodd"/></svg>