<svg xmlns="http://www.w3.org/2000/svg" width="45" height="32" viewBox="0 0 45 32"><path d="M0 19.14q0 2.798 1.664 5t4.305 2.94l-1.096 2.827q-.125.36.234.36h3.546L6.28 37.28h.485l7.266-9.438q.096-.11.033-.227t-.234-.117h-3.657l4.156-7.75q.187-.36-.235-.36h-4.94q-.233 0-.39.25L6.984 24.44q-1.797-.453-2.97-1.93t-1.17-3.367q0-2.108 1.405-3.64t3.515-1.78l.844-.048q.296 0 .374-.234l.126-.983q.265-2.703 2.288-4.54T16.17 6.08q2.72 0 4.774 1.835t2.336 4.54l.125.983q0 .28.297.28h2.688q2.234 0 3.844 1.603t1.61 3.82q0 2.174-1.493 3.775t-3.63 1.71q-.33 0-.33.298v2.234q0 .28.33.28 2.202-.062 4.04-1.194t2.896-3.016 1.063-4.086q0-1.827-.72-3.36 1.906-2.404 1.906-5.482 0-2.375-1.18-4.398t-3.203-3.204-4.398-1.18q-1.797 0-3.492.75t-2.93 2.078q-2.016-1.078-4.53-1.078-3.548 0-6.29 2.195t-3.51 5.62q-2.765.64-4.57 2.906T0 19.14zm13.14 17.032q0 .422.267.82t.813.555q.22.047.406.047 1.078 0 1.328-1.016l.22-.984q.155-.64-.142-1.14t-.875-.61q-.53-.172-1.047.117t-.688.854l-.22.984q-.062.28-.062.375zm.89-37.516q0 .578.423 1L15.53.75q.392.39.923.438.516.078 1.016-.375t.5-1.063q0-.578-.424-1L16.5-2.344q-.406-.406-1-.406-.625 0-1.047.406t-.422 1zm.423 32.672q0 .563.406.97t.967.405q.594 0 .984-.39t.39-.985q0-.578-.39-.97t-.983-.39-.984.39-.39.97zm1.03-3.78q-.03.374.228.78t.76.5q.578.156 1.063-.094t.688-.938l.44-1.5q.17-.547-.118-1.047t-.882-.674q-.547-.172-1.063.133t-.688.882l-.376 1.5q-.047.203-.047.453zm4.61 3.577q0 .422.25.805t.767.54q.078 0 .234.03t.234.03q1.016 0 1.266-1.093l.234-1q.172-.53-.117-1.047t-.85-.688q-.625-.156-1.133.133t-.68.883l-.156.984q0 .03-.022.188t-.023.234zm1.235-4.922q0 .578.406.953.375.406.97.406t.983-.39.39-.97q0-.594-.39-.984t-.984-.39-.984.39-.393.984zm1.72-20.172q1.67-1.607 4.077-1.607 2.453 0 4.18 1.71t1.727 4.165q0 1.64-.78 3.016-2.407-2.406-5.86-2.406h-.516q-.734-2.97-2.828-4.875zm2.655-8.78q0 .595.414 1.017t1.008.422.992-.415.398-1.023v-3.437q0-.61-.398-1.023t-.992-.414-1.008.422-.414 1.016v3.438zM35 1.064q0 .61.39 1 .345.39.915.43t1.055-.43l2.406-2.406q.438-.406.438-1t-.438-1q-.406-.438-1-.438-.578 0-.97.436L35.392.063q-.39.39-.39 1zm1.297 19.86q0 .577.422 1l1.076 1.046q.453.42 1.03.42l.032.03q.546 0 .905-.452.438-.407.438-1 0-.58-.437-1.017l-1.03-1.03q-.454-.453-1.017-.453-.594 0-1.008.43t-.414 1.022zm2.437-10.626q0 .61.438.984.39.44 1 .44h3.438q.594 0 1.016-.414t.422-1.008-.414-.992-1.023-.398h-3.436q-.61 0-1.023.398t-.413.992z" fill="#FFF" fill-rule="evenodd"/></svg>