<svg xmlns="http://www.w3.org/2000/svg" width="35" height="32" viewBox="0 0 35 32"><path d="M0 19.266q0 3.297 2.328 5.688t5.64 2.5q.298 0 .298-.28v-2.22q0-.297-.297-.297-2.11-.11-3.627-1.695t-1.516-3.695q0-2.094 1.414-3.648t3.493-1.73l.875-.124q.312 0 .312-.297l.125-.83q.25-2.733 2.273-4.577T16.09 6.22q2.704 0 4.735 1.827t2.328 4.516l.11.97q0 .296.312.296h2.672q2.25 0 3.858 1.61t1.61 3.826q0 2.11-1.51 3.695t-3.632 1.696q-.328 0-.328.297v2.22q0 .28.328.28 3.328-.11 5.633-2.492t2.304-5.694q0-2.234-1.11-4.133t-3.015-3-4.142-1.102h-.516Q24.9 7.688 22.21 5.555t-6.12-2.132q-3.515 0-6.25 2.188t-3.5 5.578q-2.812.72-4.577 2.945t-1.766 5.133zM9.016 30.97q0 .42.273.843t.787.578q.578.174 1.063-.06t.657-.94l.234-1.015q.127-.563-.154-1.055t-.86-.665q-.562-.172-1.07.125t-.663.89l-.234.985q-.03.094-.03.313zm1.265-4.83q0 .532.424.954.39.422.938.422.595 0 1-.398t.407-.977-.407-.975-1-.398q-.577 0-.968.39t-.39.985zm1.018-3.796q-.03.39.227.758t.805.54q.515.155 1.03-.118t.688-.852l.47-1.5q.187-.61-.11-1.086t-.906-.648q-.547-.172-1.055.11t-.68.827l-.406 1.53q0 .048-.03.196t-.03.244zm1.937 13.828q0 .438.258.828t.805.547q.203.047.422.047 1.062 0 1.312-1.016l.234-.984q.156-.64-.14-1.14t-.876-.61q-.53-.172-1.047.117t-.688.854l-.234.984q-.045.22-.045.375zm1.297-4.844q0 .547.423.97.406.405.953.405.594 0 .984-.39t.39-.985q0-.578-.39-.97t-.984-.39-.984.39-.39.97zm1.048-3.78q-.03.374.22.78t.75.5q.577.156 1.062-.094t.688-.938l.453-1.5q.173-.547-.116-1.047t-.883-.674q-.546-.172-1.062.133t-.688.882l-.375 1.5q-.048.203-.048.453zm4.594 3.577q0 .406.258.797t.773.547q.078 0 .227.03t.227.03q1.015 0 1.265-1.094l.234-1q.17-.53-.11-1.047t-.844-.69q-.625-.155-1.133.134t-.68.883l-.155.984q0 .064-.03.204t-.032.22zm1.234-4.922q0 .563.422.953.375.406.953.406.595 0 .985-.39t.39-.97q0-.594-.39-.984t-.984-.39-.983.39-.39.984zm1.016-3.86q0 .423.273.806t.82.537q.047 0 .203.03t.234.032q.25 0 .594-.157.53-.28.688-.875l.406-1.5q.156-.564-.125-1.056t-.844-.664q-.577-.172-1.062.094t-.655.844l-.47 1.516q0 .063-.03.195t-.03.194z" fill="#FFF" fill-rule="evenodd"/></svg>