<svg width="52" height="70" viewBox="0 0 52 70" xmlns="http://www.w3.org/2000/svg"><path d="M25.846 5.968c-11.516 0-20.856 9.495-20.856 21.2 0 .934.077 1.842.195 2.743.06.48.132.96.215 1.433.01.067.025.13.04.198 2.9 16.095 20.406 30.964 20.406 30.964S43.35 47.634 46.254 31.54c.014-.068.028-.13.038-.195.084-.477.16-.954.216-1.43a21.13 21.13 0 0 0 .194-2.746c0-11.708-9.34-21.203-20.856-21.203zm0 31.8c-5.76 0-10.428-4.744-10.428-10.6 0-5.854 4.67-10.6 10.428-10.6 5.76 0 10.428 4.746 10.428 10.6 0 5.856-4.668 10.6-10.428 10.6z" stroke="#FFF" stroke-width="5" fill="#D95720" fill-rule="evenodd"/></svg>