<svg xmlns="http://www.w3.org/2000/svg" viewBox="0 0 75 18"><g fill="#D95720"><path d="M17 0H1C.4 0 0 .4 0 1v16c0 .5.4 1 1 1h8.6v-7H7.3V8.3h2.3v-2c0-2.3 1.4-3.6 3.5-3.6 1 0 1.8.1 2.1.1v2.4h-1.4c-1.1 0-1.3.5-1.3 1.3v1.7h2.7l-.4 2.8h-2.3v7H17c.5 0 1-.4 1-1V1c0-.6-.4-1-1-1zm15.9 0h-9.6c-1.3 0-1.7 1-1.7 1.6v15.3c0 .7.4 1 .6 1.1.2.1.8.2 1.2-.2 0 0 4.5-5.3 4.6-5.3.1-.1.1-.1.2-.1h2.9c1.2 0 1.4-.9 1.6-1.4.1-.4 1.3-6.6 1.7-8.5.3-1.7-.1-2.5-1.5-2.5zm-.3 10.8c.1-.4 1.3-6.6 1.7-8.5m-2 .3l-.4 2.1c0 .2-.3.5-.6.5h-3.7c-.4 0-.7.3-.7.7v.5c0 .4.3.7.7.7h3.2c.3 0 .6.3.5.6-.1.3-.4 1.9-.4 2.1 0 .2-.2.5-.6.5h-2.6c-.5 0-.6.1-.9.5-.3.4-3.2 3.8-3.2 3.8h-.1v-12c0-.3.2-.6.6-.6h7.7c.3 0 .6.3.5.6zm23.7.8c-.7.3-1.4.5-2.1.6.8-.5 1.3-1.2 1.6-2-.7.4-1.5.7-2.3.9-.7-.7-1.6-1.2-2.7-1.2-2 0-3.7 1.7-3.7 3.7 0 .3 0 .6.1.8-3.1-.2-5.8-1.6-7.6-3.9-.3.5-.5 1.2-.5 1.9 0 1.3.7 2.4 1.6 3.1-.6 0-1.2-.2-1.7-.5 0 1.8 1.3 3.3 3 3.6-.3.1-.6.1-1 .1-.2 0-.5 0-.7-.1.5 1.5 1.8 2.5 3.4 2.6-1.3 1-2.9 1.6-4.6 1.6-.3 0-.6 0-.9-.1 1.6 1 3.6 1.7 5.7 1.7 6.8 0 10.5-5.6 10.5-10.5v-.5c.8-.4 1.4-1 1.9-1.8z"/><path fill-rule="evenodd" clip-rule="evenodd" d="M72.9 7.6h-1.6c.2.4.2.9.2 1.4 0 3.1-2.5 5.5-5.5 5.5-3.1 0-5.5-2.5-5.5-5.5 0-.5.1-.9.2-1.4h-1.6v7.6c0 .4.3.7.7.7h12.5c.4 0 .7-.3.7-.7V7.6zm0-4.9c0-.4-.3-.7-.7-.7h-2.1c-.4 0-.7.3-.7.7v2.1c0 .4.3.7.7.7h2.1c.4 0 .7-.3.7-.7V2.7zM66 5.5c-1.9 0-3.5 1.5-3.5 3.5 0 1.9 1.5 3.5 3.5 3.5 1.9 0 3.5-1.6 3.5-3.5S67.9 5.5 66 5.5M72.9 18H59.1c-1.1 0-2.1-.9-2.1-2.1V2.1c0-1.2.9-2.1 2.1-2.1h13.8c1.2 0 2.1.9 2.1 2.1v13.8c0 1.2-.9 2.1-2.1 2.1"/></g></svg>