<svg xmlns="http://www.w3.org/2000/svg" viewBox="0 0 170 117"><path d="M27.4 22.8l3 2.6c-.4-.3-1-.5-1.8-.4-1.8.1-2.9 1.2-3.2 3.2l-3-2.6c.3-2 1.4-3 3.2-3.2.8-.1 1.4 0 1.8.4z"/><path d="M22.4 25.5l2.9 2.6-.6 4-2.9-2.6zM27.8 37.6l-3-2.6c-2.3-2-3.3-3.8-3.1-5.4l3 2.6c-.2 1.5.8 3.3 3.1 5.4zM32.5 17.5l3 2.6c1.6 1.4 2.1 3.8 1.6 7.2l-3-2.6c.5-3.4 0-5.8-1.6-7.2zM21.4 41.3l3 2.6c-.5-.4-1-.9-1.6-1.3-.4-.3-.7-.5-1-.8l-3-2.6c.3.3.6.5 1 .8.6.4 1.1.9 1.6 1.3zM33.2 30.6l3 2.6-6.3.5L27 31z"/><path d="M34.1 24.7l3 2.6-.9 5.9-3-2.6zM19.2 46.5l2.9 2.6-.9 6-2.9-2.6z"/><path d="M21.7 57.4l-3-2.6c-.5-.4-.7-1.2-.5-2.4l3 2.6c-.1 1.2 0 2 .5 2.4zM27.6 37.1l3 2.6c2.7 2.4 3.8 5.4 3.3 8.9l-3-2.6c.5-3.5-.6-6.5-3.3-8.9zM30.9 46.1l2.9 2.6-.8 5.6-3-2.7z"/><path d="M16.6 62.7l-3-2.6c1.3 1.1 3.3 1.6 6 1.4 6-.4 9.5-3.7 10.4-9.9l3 2.6c-.9 6.2-4.4 9.5-10.4 9.9-2.7.2-4.7-.2-6-1.4z"/><path d="M26.5 16c6-.4 8.5 2.5 7.6 8.6l-.9 5.9-6.2.5.9-5.9c.3-2-.4-2.9-2.2-2.8-1.8.1-2.9 1.2-3.2 3.2l-.6 4c-.3 2 1.3 4.2 4.8 6.8 3.5 2.6 4.9 5.8 4.3 9.8l-1 5.5c-.9 6.2-4.4 9.5-10.4 9.9-6 .4-8.5-2.5-7.6-8.6l.9-5.9 6.3-.4-.9 5.9c-.3 2 .4 2.9 2.3 2.8 1.8-.1 2.9-1.2 3.2-3.2l.8-5c.3-2.1-1.3-4.5-4.7-7-3.5-2.6-4.9-5.9-4.3-9.9l.6-4.1c.9-6.3 4.3-9.6 10.3-10.1zM46.8 15.3l3 2.6-5.5 35.6-2.9-2.6z"/><path d="M44.8 55.8l-3-2.6c-.5-.4-.7-1.2-.5-2.4l3 2.6c-.2 1.2 0 2 .5 2.4zM58.5 14.5l3 2.6L56 52.6 53.1 50z"/><path d="M58.5 14.5L53.1 50c-.9 6.2-4.4 9.5-10.4 9.9-6 .4-8.5-2.5-7.6-8.6l5.4-35.5 6.3-.4-5.4 35.5c-.3 2 .4 2.9 2.2 2.8 1.8-.1 2.9-1.2 3.2-3.2L52.2 15l6.3-.5z"/><path d="M39.6 61.1l-3-2.6c1.3 1.1 3.3 1.6 6 1.4 6-.4 9.5-3.7 10.4-9.9l3 2.6c-.9 6.2-4.4 9.5-10.4 9.9-2.7.2-4.7-.2-6-1.4zM70.3 13.7l3 2.6L76 46l-2.9-2.6zM67.1 33l3 2.6-3.8 24.8-2.9-2.6z"/><path d="M63.4 57.8l2.9 2.6-6 .4-3-2.6zM73.1 57.1l3 2.6-4.3.3-2.9-2.6zM82.3 32l2.9 2.6-9.1 25.1-3-2.6z"/><path d="M91.2 12.2l-6.7 44.1-6 .4L82.3 32l-9.2 25.1-4.2.3L67.1 33l-3.7 24.8-6.1.4L64 14.1l6.3-.4 2.8 29.7 11.8-30.8z"/><path d="M84.5 56.3l2.9 2.6-6 .4-2.9-2.6z"/><path d="M91.2 12.2l3 2.6-6.8 44.1-2.9-2.6zM103.2 11.4l3 2.6 2.7 29.7-2.9-2.6zM96.3 55.5l3 2.6-6.1.4-3-2.6zM100.1 30.7l2.9 2.6-3.7 24.8-3-2.6zM115.2 29.7l3 2.6-9.2 25.1-2.9-2.6z"/><path d="M106.1 54.8l2.9 2.6-4.2.3-3-2.6zM135.2 15.3l3 2.6-2 12.7-2.9-2.6zM146.1 8.4l3 2.6-1 6.3-2.9-2.7z"/><path d="M145.2 14.6l2.9 2.7-9.9.6-3-2.6zM117.4 54l3 2.6-6 .4-3-2.6z"/><path d="M124.1 9.9L117.4 54l-6 .4 3.8-24.7-9.1 25.1-4.3.3-1.7-24.4-3.8 24.8-6.1.4L97 11.8l6.2-.4 2.8 29.7 11.9-30.8z"/><path d="M124.1 9.9l3 2.6-6.7 44.1-3-2.6zM158.3 13.7l3 2.6-2.2.2-3-2.6zM141.9 27.4l2.9 2.6-.9 6.3-3-2.6zM140.9 33.7l3 2.6-8.6.6-3-2.6z"/><path d="M132.3 34.3l3 2.6-2 12.6-2.9-2.6zM160.1 14.2l3 2.6c-.4-.3-1-.5-1.8-.4l-3-2.6c.8-.1 1.4 0 1.8.4zM156.1 13.9l3 2.6-2 12.6-2.9-2.6zM165.3 8.7l3 2.6c1.6 1.4 2.1 3.8 1.6 7.4l-3-2.6c.5-3.5-.1-6-1.6-7.4zM154.1 32.2l2.9 2.7-.8.1-2.9-2.6z"/><path d="M146.1 8.4l-.9 6.2-10 .7-1.9 12.7 8.6-.6-1 6.3-8.6.6-1.9 12.6 10-.7-1 6.3-16.2 1.1 6.7-44.1zM139.4 52.5l3 2.6-16.3 1.1-2.9-2.6z"/><path d="M140.4 46.2l2.9 2.6-.9 6.3-3-2.6zM166.8 16.1l3 2.6-1 6.6-3-2.6z"/><path d="M165.8 22.7l3 2.6c-.6 3.9-2.6 6.6-6.1 8l-3-2.6c3.5-1.4 5.5-4.1 6.1-8zM150.3 51.7l3 2.6-6.3.5-2.9-2.7zM153.3 32.4l2.9 2.6-2.9 19.3-3-2.6z"/><path d="M159.9 7.4c5.6-.4 7.9 2.5 6.9 8.7l-1 6.6c-.6 3.9-2.6 6.6-6.1 8l3.9 20-6.9.5-2.7-19-.8.2-2.9 19.3-6.3.4L150.8 8l9.1-.6zm.7 9.1c.3-2-.5-2.9-2.3-2.8l-2.2.2-1.9 12.6 1.4-.1c.9-.1 1.5-.2 1.8-.3 1.2-.5 1.9-1.5 2.1-2.9l1.1-6.7zM163.6 50.8l3 2.6-6.9.5-2.9-2.6z"/><path d="M159.7 30.7l3 2.6 3.9 20.1-3-2.6z"/><g><path d="M21.2 69.5l3 2.6 2.8 29.7-3-2.6zM18.1 88.8l3 2.7-3.8 24.7-3-2.6z"/><path d="M14.3 113.6l3 2.6-6.1.4-3-2.6zM55.6 72.6l3 2.6c-1.8.1-2.9 1.2-3.2 3.2l-3-2.6c.3-2 1.4-3.1 3.2-3.2z"/><path d="M57.4 73l3 2.6c-.4-.3-1-.5-1.8-.4l-3-2.6c.8-.1 1.4.1 1.8.4zM33.2 87.8l3 2.6-9.2 25.1-2.9-2.6zM24.1 112.9l2.9 2.6-4.2.3-3-2.6zM62.6 67.8l3 2.6c1.6 1.4 2.1 3.8 1.6 7.2l-3-2.6c.5-3.4 0-5.8-1.6-7.2zM42.1 68l3 2.6-6.7 44.1-3-2.6z"/><path d="M42.1 68l-6.7 44.1-6 .4 3.8-24.7-9.1 25.1-4.3.3-1.7-24.4-3.8 24.8-6.1.4L15 69.9l6.2-.4L24 99.2l11.9-30.7z"/><path d="M35.4 112.1l3 2.6-6 .4-3-2.6zM52.4 75.8l3 2.6-4.1 27-3-2.7z"/><path d="M51.8 107.7l-3-2.6c-.5-.4-.7-1.2-.5-2.4l3 2.6c-.2 1.2 0 2 .5 2.4zM64.2 74.9l2.9 2.7-4.1 26.9-3-2.6z"/><path d="M46.6 113l-3-2.6c1.3 1.1 3.3 1.6 6 1.4 6-.4 9.5-3.7 10.4-9.9l3 2.6c-1 6.2-4.4 9.5-10.4 9.9-2.7.2-4.7-.2-6-1.4z"/><path d="M56.6 66.3c6-.4 8.5 2.4 7.6 8.6l-4.1 27c-1 6.2-4.4 9.5-10.4 9.9-6 .4-8.5-2.5-7.6-8.7l4.1-27c.9-6.1 4.4-9.4 10.4-9.8zm1.3 9.1c.3-2-.5-2.9-2.3-2.8-1.8.1-2.9 1.2-3.2 3.2l-4.1 27c-.3 2 .5 2.9 2.3 2.8 1.8-.1 2.9-1.2 3.2-3.2l4.1-27z"/></g><g><path d="M90.3 64.7l2.9 2.6-4.4 15.8-3-2.7zM75.1 65.7l3 2.6-.8 33.7-3-2.6z"/><path d="M90.3 64.7l-4.5 15.7-8.7 28.8-8.6.6-.1-28.2.4-15.4 6.3-.5-.8 33.7 9.6-34.3z"/><path d="M77.1 109.2l3 2.6-8.6.6-3-2.6z"/><path d="M85.8 80.4l3 2.7-8.7 28.7-3-2.6zM111.6 69.4l2.9 2.6-1.9 12.6-3-2.6z"/><path d="M121.6 68.7l2.9 2.6-10 .7-2.9-2.6z"/><path d="M122.5 62.4l3 2.6-1 6.3-2.9-2.6zM93.7 108l2.9 2.7-6.2.4-3-2.6zM100.4 63.9L93.7 108l-6.3.5 6.7-44.1z"/><path d="M100.4 63.9l3 2.7-6.8 44.1-2.9-2.7zM118.2 81.4l3 2.6-1 6.3-2.9-2.6z"/><path d="M117.3 87.7l2.9 2.6-8.6.6-2.9-2.6z"/><path d="M108.7 88.3l2.9 2.6-1.9 12.6-3-2.6zM136.6 67.5l3 2.6c-.4-.3-1-.5-1.8-.4-1.8.1-2.9 1.2-3.2 3.2l-3-2.6c.3-2 1.4-3.1 3.2-3.2.8-.1 1.4 0 1.8.4z"/><path d="M131.7 70.2l2.9 2.6-.6 4-2.9-2.6zM137.1 82.3l-3-2.6c-2.3-2-3.3-3.8-3-5.4l3 2.6c-.3 1.6.7 3.4 3 5.4zM141.8 62.2l3 2.6c1.6 1.4 2.1 3.8 1.6 7.2l-3-2.6c.5-3.4 0-5.8-1.6-7.2zM130.7 86.1l3 2.6c-.5-.4-1-.9-1.6-1.3-.3-.3-.7-.5-1-.8l-3-2.6c.3.3.6.5 1 .8.6.4 1.1.8 1.6 1.3zM142.5 75.3l3 2.7-6.3.4-3-2.6z"/><path d="M143.4 69.4l2.9 2.6-.8 6-3-2.7zM116.7 100.2l3 2.6-1 6.3-2.9-2.6z"/><path d="M122.5 62.4l-.9 6.3-10 .7-2 12.6 8.6-.6-.9 6.3-8.6.6-2 12.6 10-.7-.9 6.3-16.3 1.1 6.8-44.1zM115.8 106.5l2.9 2.6-16.2 1.1-3-2.6zM128.4 91.3l3 2.6-.9 5.9-3-2.6z"/><path d="M131 102.2l-3-2.6c-.5-.5-.7-1.2-.5-2.4l3 2.6c-.2 1.1 0 1.9.5 2.4zM136.9 81.9l3 2.6c2.7 2.4 3.8 5.4 3.3 8.9l-3-2.6c.5-3.5-.6-6.5-3.3-8.9zM140.1 90.8l3 2.6-.9 5.6-2.9-2.6z"/><path d="M125.9 107.5l-3-2.6c1.3 1.1 3.3 1.6 6 1.4 6-.4 9.5-3.7 10.4-9.9l3 2.6c-.9 6.2-4.4 9.5-10.4 9.9-2.8.2-4.8-.3-6-1.4z"/><path d="M135.8 60.8c6-.4 8.5 2.4 7.6 8.6l-.9 5.9-6.3.4.9-5.9c.3-2-.4-2.9-2.3-2.8-1.8.1-2.9 1.2-3.2 3.2l-.6 4c-.3 2 1.3 4.2 4.7 6.8 3.5 2.6 4.9 5.8 4.3 9.8l-.8 5.6c-.9 6.2-4.4 9.5-10.4 9.9-6 .4-8.5-2.5-7.6-8.7l.9-5.9 6.3-.4-.9 5.9c-.3 2 .5 2.9 2.3 2.8 1.8-.1 2.9-1.2 3.2-3.2l.8-5c.3-2.1-1.2-4.5-4.7-7-3.5-2.6-4.9-5.9-4.3-9.9l.6-4.1c.9-6.3 4.4-9.6 10.4-10z"/></g><g><path d="M157.2 59.7l2.9 2.6.4 6-2.9-2.7zM156.1 66.1l3 2.6-.9 5.9-3-2.6z"/><path d="M155.2 72l3 2.6-1.9.1-3-2.6z"/><path d="M160.4 59.5l-1.9 12.3-2 .1-.4-5.8-.9 5.9-1.9.1 1.9-12.3 2-.1.4 5.9.9-6zM160.4 59.5l3 2.6-1.9 12.3-3-2.6z"/><path d="M158.5 71.8l3 2.6-2 .1-3-2.6z"/></g><g><path d="M155.6 76l2.9 2.6.3 4.7-2.9-2.6z"/><path d="M159.8 75.7l2.9 2.6-3.1 7.2-3-2.6zM156.6 82.9l3 2.6-.1.1-3-2.6z"/><path d="M159.8 75.7l-3.2 7.2-.1.1-.8 5.2-2 .1.8-5.2V83l-1.1-6.8 2.2-.2.3 4.7 1.7-4.8z"/><path d="M156.5 83l3 2.6-.8 5.2-3-2.6z"/><path d="M155.7 88.2l3 2.6-2 .1-3-2.6z"/></g><g><path d="M155.4 94l3 2.6c-.1-.1-.2-.1-.4-.1-.4 0-.6.3-.7.7l-3-2.6c.1-.5.3-.7.7-.7.2 0 .3.1.4.1zM157.1 92.4l3 2.6c.3.3.5.7.5 1.3 0 .2 0 .5-.1.8l-3-2.6c.1-.3.1-.5.1-.8-.1-.6-.2-1-.5-1.3zM154.3 94.7l3 2.6-1.2 7.4-2.9-2.6z"/><path d="M157.2 96.2l3 2.6-2 .2-3-2.6z"/><path d="M157.5 94.5l3 2.6-.3 1.7-3-2.6zM156.3 105.2l-3-2.6c-.1-.1-.2-.3-.1-.6l3 2.6c-.1.3-.1.5.1.6zM156.6 100.1l3 2.6-.3 1.8-2.9-2.7z"/><path d="M154.6 106.9l-3-2.6c.4.3 1 .5 1.7.4 1.7-.1 2.8-1.1 3-2.8l3 2.6c-.3 1.8-1.3 2.7-3 2.8-.8.1-1.3-.1-1.7-.4z"/><path d="M155.3 92c1.5-.1 2.2.5 2.3 1.7 0 .2 0 .5-.1.8l-.3 1.7-2 .1.3-1.7c.1-.5-.1-.7-.5-.7s-.6.3-.7.7l-1.1 7.4c-.1.5.1.7.5.7s.6-.3.7-.7l.3-1.7 2-.1-.3 1.7c-.3 1.8-1.3 2.7-3 2.8-1.5.1-2.2-.5-2.3-1.7v-.8l1.1-7.4c.4-1.7 1.4-2.7 3.1-2.8z"/></g><g><path fill="#DB570D" d="M24.4 20.1l3 2.6c-.4-.3-1-.5-1.8-.4-1.8.1-2.9 1.2-3.2 3.2l-3-2.6c.3-2 1.4-3 3.2-3.2.8-.1 1.4.1 1.8.4z"/><path fill="#DB570D" d="M19.4 22.9l3 2.6-.6 4-3-2.6zM24.8 34.9l-3-2.6c-2.3-2-3.3-3.8-3.1-5.4l3 2.6c-.2 1.6.9 3.4 3.1 5.4zM29.5 14.9l3 2.6c1.6 1.4 2.1 3.8 1.6 7.2l-3-2.6c.6-3.4 0-5.8-1.6-7.2zM18.4 38.7l3 2.6c-.5-.4-1-.9-1.6-1.3-.4-.3-.7-.5-1-.8l-3-2.6c.3.3.6.5 1 .8.6.4 1.1.8 1.6 1.3zM30.3 28l2.9 2.6-6.2.4-3-2.6z"/><path fill="#DB570D" d="M31.2 22l2.9 2.7-.9 5.9-2.9-2.6zM16.2 43.9l3 2.6-.9 6-3-2.6z"/><path fill="#DB570D" d="M18.8 54.8l-3-2.6c-.5-.4-.7-1.2-.5-2.4l3 2.6c-.2 1.2 0 2 .5 2.4zM24.6 34.5l3 2.6c2.7 2.4 3.8 5.4 3.3 8.9l-3-2.6c.5-3.5-.6-6.5-3.3-8.9zM27.9 43.5l3 2.6-.9 5.5-3-2.6z"/><path fill="#DB570D" d="M13.6 60.1l-3-2.6c1.3 1.1 3.3 1.6 6 1.4 6-.4 9.5-3.7 10.4-9.9l3 2.6c-.9 6.2-4.4 9.5-10.4 9.9-2.7.2-4.7-.3-6-1.4z"/><path fill="#DB570D" d="M23.5 13.4c6-.4 8.5 2.5 7.6 8.6l-.8 6-6.3.4.9-5.9c.3-2-.4-2.9-2.2-2.8-1.8.1-2.9 1.2-3.2 3.2l-.6 4c-.3 2 1.3 4.2 4.8 6.8 3.5 2.6 4.9 5.8 4.3 9.8L27 49c-.9 6.2-4.4 9.5-10.4 9.9-6 .4-8.5-2.5-7.6-8.6l.9-5.9 6.3-.4-.9 5.9c-.3 2 .4 2.9 2.3 2.8 1.8-.1 2.9-1.2 3.2-3.2l.8-5c.3-2.1-1.3-4.5-4.7-7-3.5-2.6-4.9-5.9-4.3-9.9l.6-4.1c.9-6.4 4.4-9.7 10.3-10.1zM43.8 12.7l3 2.6-5.4 35.6-3-2.7z"/><path fill="#DB570D" d="M41.9 53.2l-3-2.6c-.5-.4-.7-1.2-.5-2.4l3 2.6c-.2 1.2-.1 2 .5 2.4zM55.6 11.9l2.9 2.6L53.1 50l-3-2.6z"/><path fill="#DB570D" d="M55.6 11.9l-5.4 35.5c-.9 6.2-4.4 9.5-10.4 9.9-6 .4-8.5-2.5-7.6-8.6l5.4-35.5 6.3-.4-5.4 35.5c-.3 2 .4 2.9 2.2 2.8 1.8-.1 2.9-1.2 3.2-3.2l5.4-35.5 6.3-.5z"/><path fill="#DB570D" d="M36.7 58.5l-3-2.6c1.3 1.1 3.3 1.6 6 1.4 6-.4 9.5-3.7 10.4-9.9l3 2.6c-.9 6.2-4.4 9.5-10.4 9.9-2.7.2-4.7-.3-6-1.4zM67.3 11l3 2.7 2.8 29.7-3-2.7zM64.2 30.4l2.9 2.6-3.7 24.8-3-2.6zM60.4 55.2l3 2.6-6.1.4-3-2.6zM70.2 54.5l2.9 2.6-4.2.3-3-2.6z"/><path fill="#DB570D" d="M79.3 29.4l3 2.6-9.2 25.1-2.9-2.6z"/><path fill="#DB570D" d="M88.2 9.6l-6.7 44.1-6 .4 3.8-24.7-9.1 25.1-4.3.3-1.7-24.4-3.8 24.8-6.1.4 6.8-44.1 6.2-.5 2.8 29.7L82 10z"/><path fill="#DB570D" d="M81.5 53.7l3 2.6-6 .4-3-2.6zM88.2 9.6l3 2.6-6.7 44.1-3-2.6zM100.3 8.7l2.9 2.7 2.8 29.7-3-2.7zM93.3 52.9l3 2.6-6.1.4-2.9-2.6z"/><path fill="#DB570D" d="M97.1 28.1l3 2.6-3.8 24.8-3-2.6zM112.2 27.1l3 2.6-9.1 25.1-3-2.6zM103.1 52.2l3 2.6-4.3.3-3-2.6zM132.2 12.7l3 2.6-1.9 12.7-3-2.6zM143.2 5.7l2.9 2.7-.9 6.2-3-2.6z"/><path fill="#DB570D" d="M142.2 12l3 2.6-10 .7-3-2.6zM114.5 51.4l2.9 2.6-6 .4-3-2.6z"/><path fill="#DB570D" d="M121.2 7.3l-6.7 44.1-6.1.4 3.8-24.7-9.1 25.1-4.3.3-1.7-24.4-3.8 24.8-6 .4L94 9.2l6.3-.5 2.7 29.7 11.9-30.7z"/><path fill="#DB570D" d="M121.2 7.3l2.9 2.6-6.7 44.1-2.9-2.6zM155.3 11.1l3 2.6-2.2.2-3-2.6zM138.9 24.8l3 2.6-1 6.3-3-2.7z"/><path fill="#DB570D" d="M137.9 31l3 2.7-8.6.6-3-2.7z"/><path fill="#DB570D" d="M129.3 31.6l3 2.7-1.9 12.6-3-2.6zM157.1 11.5l3 2.6c-.4-.3-1-.5-1.8-.4l-3-2.6c.8-.1 1.4.1 1.8.4zM153.1 11.3l3 2.6-1.9 12.6-3-2.6zM162.3 6.1l3 2.6c1.6 1.4 2.1 3.8 1.6 7.4l-3-2.6c.5-3.5 0-6-1.6-7.4zM151.1 29.6l3 2.6-.8.2-3-2.6z"/><path fill="#DB570D" d="M143.2 5.7l-1 6.3-10 .7-1.9 12.7 8.6-.6-1 6.2-8.6.6-1.9 12.7 10-.7-.9 6.2-16.3 1.2 6.7-44.1zM136.5 49.8l2.9 2.7-16.2 1.1-3-2.6z"/><path fill="#DB570D" d="M137.4 43.6l3 2.6-1 6.3-2.9-2.7zM163.9 13.5l2.9 2.6-1 6.6-2.9-2.6z"/><path fill="#DB570D" d="M162.9 20.1l3 2.6c-.6 3.9-2.6 6.6-6.1 8l-3-2.6c3.4-1.4 5.5-4.1 6.1-8zM147.4 49.1l2.9 2.6-6.2.4-3-2.6z"/><path fill="#DB570D" d="M150.3 29.8l3 2.6-3 19.3-2.9-2.6z"/><path fill="#DB570D" d="M156.9 4.8c5.6-.4 7.9 2.5 6.9 8.7l-1 6.6c-.6 3.9-2.6 6.6-6.1 8l3.9 20-6.9.5-2.7-19-.8.2-2.9 19.3-6.3.4 6.7-44.1 9.2-.6zm.7 9.1c.3-2-.5-2.9-2.3-2.8l-2.2.2-1.9 12.6 1.4-.1c.9-.1 1.5-.2 1.8-.3 1.2-.5 1.9-1.5 2.1-2.9l1.1-6.7z"/><path fill="#DB570D" d="M160.7 48.2l2.9 2.6-6.8.5-3-2.7z"/><path fill="#DB570D" d="M156.7 28.1l3 2.6 3.9 20.1-2.9-2.6z"/><g><path fill="#DB570D" d="M18.3 66.9l2.9 2.6L24 99.2l-3-2.6zM15.1 86.2l3 2.6-3.8 24.8-3-2.6z"/><path fill="#DB570D" d="M11.3 111l3 2.6-6.1.4-2.9-2.6zM52.6 70l3 2.6c-1.8.1-2.9 1.2-3.2 3.2l-3-2.6c.4-2 1.4-3.1 3.2-3.2z"/><path fill="#DB570D" d="M54.4 70.4l3 2.6c-.4-.3-1-.5-1.8-.4l-3-2.6c.8-.1 1.4.1 1.8.4zM30.2 85.2l3 2.6-9.1 25.1-3-2.6z"/><path fill="#DB570D" d="M21.1 110.3l3 2.6-4.3.3-3-2.6zM59.6 65.1l3 2.6c1.6 1.4 2.1 3.8 1.6 7.2l-3-2.6c.5-3.4 0-5.8-1.6-7.2zM39.2 65.4l2.9 2.6-6.7 44.1-2.9-2.6z"/><path fill="#DB570D" d="M39.2 65.4l-6.7 44.1-6 .4 3.7-24.7-9.1 25.1-4.3.3-1.7-24.4-3.8 24.8-6 .4L12 67.3l6.3-.4L21 96.6l11.9-30.8z"/><path fill="#DB570D" d="M32.5 109.5l2.9 2.6-6 .4-2.9-2.6zM49.5 73.2l2.9 2.6-4.1 26.9-3-2.6z"/><path fill="#DB570D" d="M48.8 105.1l-3-2.6c-.5-.4-.7-1.2-.5-2.4l3 2.6c-.2 1.2 0 2 .5 2.4zM61.2 72.3l3 2.6-4.2 27-2.9-2.6z"/><path fill="#DB570D" d="M43.6 110.4l-3-2.6c1.3 1.1 3.3 1.6 6 1.4 6-.4 9.5-3.7 10.4-9.9l3 2.6c-1 6.2-4.4 9.5-10.4 9.9-2.7.2-4.7-.2-6-1.4z"/><path fill="#DB570D" d="M53.6 63.7c6-.4 8.5 2.4 7.6 8.6l-4.1 27c-1 6.2-4.4 9.5-10.4 9.9-6 .4-8.5-2.5-7.6-8.7l4.1-27c.9-6.1 4.4-9.4 10.4-9.8zm1.3 9.1c.3-2-.5-2.9-2.3-2.8-1.8.1-2.9 1.2-3.2 3.2l-4.1 27c-.3 2 .5 2.9 2.3 2.8 1.8-.1 2.9-1.2 3.2-3.2l4.1-27z"/></g><g><path fill="#DB570D" d="M87.3 62l3 2.7-4.5 15.7-2.9-2.6zM72.1 63.1l3 2.6-.8 33.7-3-2.6z"/><path fill="#DB570D" d="M87.3 62l-4.4 15.8-8.8 28.8-8.6.6V79l.3-15.5 6.3-.4-.8 33.7L81 62.5z"/><path fill="#DB570D" d="M74.1 106.6l3 2.6-8.6.6-3-2.6zM82.9 77.8l2.9 2.6-8.7 28.8-3-2.6zM108.6 66.7l3 2.7-2 12.6-2.9-2.6z"/><path fill="#DB570D" d="M118.6 66l3 2.7-10 .7-3-2.7z"/><path fill="#DB570D" d="M119.5 59.8l3 2.6-.9 6.3-3-2.7zM90.7 105.4l3 2.6-6.3.5-3-2.6z"/><path fill="#DB570D" d="M97.4 61.3l-6.7 44.1-6.3.5 6.8-44.1z"/><path fill="#DB570D" d="M97.4 61.3l3 2.6-6.7 44.1-3-2.6zM115.3 78.8l2.9 2.6-.9 6.3-3-2.6z"/><path fill="#DB570D" d="M114.3 85.1l3 2.6-8.6.6-3-2.6zM105.7 85.7l3 2.6-2 12.6-2.9-2.6zM133.7 64.9l3 2.6c-.4-.3-1-.5-1.8-.4-1.8.1-2.9 1.2-3.2 3.2l-3-2.6c.3-2 1.4-3.1 3.2-3.2.8-.1 1.4 0 1.8.4z"/><path fill="#DB570D" d="M128.7 67.6l3 2.6-.6 4-3-2.6zM134.1 79.7l-3-2.6c-2.3-2-3.3-3.8-3-5.4l3 2.6c-.3 1.5.7 3.4 3 5.4zM138.8 59.6l3 2.6c1.6 1.4 2.1 3.8 1.6 7.2l-3-2.6c.5-3.4 0-5.8-1.6-7.2zM127.7 83.4l3 2.6c-.5-.4-1-.9-1.6-1.3-.3-.3-.7-.5-1-.8l-3-2.6c.3.3.6.5 1 .8.6.5 1.1.9 1.6 1.3zM139.5 72.7l3 2.6-6.3.5-2.9-2.6z"/><path fill="#DB570D" d="M140.4 66.8l3 2.6-.9 5.9-3-2.6zM113.8 97.6l2.9 2.6-.9 6.3-3-2.6zM119.5 59.8l-.9 6.2-10 .7-1.9 12.7 8.6-.6-1 6.3-8.6.6-1.9 12.6 10-.7-1 6.3-16.2 1.1 6.7-44.1zM112.8 103.9l3 2.6-16.3 1.1-2.9-2.6zM125.5 88.6l2.9 2.7-.9 5.9-2.9-2.6z"/><path fill="#DB570D" d="M128.1 99.6l-3-2.6c-.5-.5-.7-1.2-.5-2.4l3 2.6c-.2 1.1-.1 1.9.5 2.4zM133.9 79.3l3 2.6c2.7 2.4 3.8 5.4 3.3 8.9l-3-2.6c.5-3.5-.6-6.5-3.3-8.9zM137.2 88.2l2.9 2.6-.8 5.6-3-2.6z"/><path fill="#DB570D" d="M122.9 104.9l-3-2.6c1.3 1.1 3.3 1.6 6 1.4 6-.4 9.5-3.7 10.4-9.9l3 2.6c-.9 6.2-4.4 9.5-10.4 9.9-2.7.2-4.7-.3-6-1.4z"/><path fill="#DB570D" d="M132.8 58.2c6-.4 8.5 2.4 7.6 8.6l-.9 5.9-6.3.4.9-5.9c.3-2-.4-2.9-2.3-2.8-1.8.1-2.9 1.2-3.2 3.2l-.6 4c-.3 2 1.3 4.2 4.7 6.8 3.5 2.6 4.9 5.8 4.3 9.8l-.8 5.6c-.9 6.2-4.4 9.5-10.4 9.9-6 .4-8.5-2.5-7.6-8.7l.9-5.9 6.3-.4-.9 5.9c-.3 2 .5 2.9 2.3 2.8 1.8-.1 2.9-1.2 3.2-3.2l.8-5c.3-2.1-1.2-4.5-4.7-7-3.5-2.6-4.9-5.9-4.3-9.9l.6-4.1c1-6.3 4.4-9.6 10.4-10z"/></g><g><path fill="#DB570D" d="M154.2 57.1l3 2.6.4 5.9-3-2.6zM153.2 63.5l2.9 2.6-.9 5.9-2.9-2.6z"/><path fill="#DB570D" d="M152.3 69.4l2.9 2.6-1.9.1-3-2.6zM157.4 56.8l-1.8 12.3-2 .2-.4-5.8-.9 5.9-2 .1 1.9-12.3 2-.1.4 5.9.9-6z"/><path fill="#DB570D" d="M157.4 56.8l3 2.7-1.9 12.3-2.9-2.7z"/><path fill="#DB570D" d="M155.6 69.1l2.9 2.7-2 .1-2.9-2.6z"/></g><g><path fill="#DB570D" d="M152.6 73.4l3 2.6.3 4.7-3-2.6z"/><path fill="#DB570D" d="M156.8 73.1l3 2.6-3.2 7.2-3-2.7zM153.6 80.2l3 2.7-.1.1-2.9-2.6z"/><path fill="#DB570D" d="M156.8 73.1l-3.2 7.1v.2l-.8 5.2-2 .1.8-5.2-.1-.1-1-6.8 2.1-.2.3 4.7 1.8-4.8z"/><path fill="#DB570D" d="M153.6 80.4l2.9 2.6-.8 5.2-2.9-2.6z"/><path fill="#DB570D" d="M152.8 85.6l2.9 2.6-2 .1-2.9-2.6z"/></g><g><path fill="#DB570D" d="M152.4 91.4l3 2.6c-.1-.1-.2-.1-.4-.1-.4 0-.6.3-.7.7l-3-2.6c.1-.5.3-.7.7-.7.2 0 .3.1.4.1zM154.1 89.8l3 2.6c.3.3.5.7.5 1.3 0 .2 0 .5-.1.8l-3-2.6c.1-.3.1-.5.1-.8 0-.6-.2-1-.5-1.3zM151.3 92.1l3 2.6-1.1 7.4-3-2.6z"/><path fill="#DB570D" d="M154.3 93.6l2.9 2.6-2 .2-2.9-2.7z"/><path fill="#DB570D" d="M154.5 91.9l3 2.6-.3 1.7-2.9-2.6zM153.3 102.6l-3-2.6c-.1-.1-.2-.3-.1-.6l3 2.6c-.1.3 0 .5.1.6zM153.7 97.5l2.9 2.6-.2 1.7-3-2.6z"/><path fill="#DB570D" d="M151.6 104.3l-3-2.6c.4.3 1 .5 1.7.4 1.7-.1 2.8-1.1 3-2.8l3 2.6c-.3 1.8-1.3 2.7-3 2.8-.7 0-1.3-.1-1.7-.4z"/><path fill="#DB570D" d="M152.3 89.4c1.5-.1 2.2.5 2.3 1.7 0 .2 0 .5-.1.8l-.3 1.7-2 .1.3-1.7c.1-.5-.1-.7-.5-.7s-.6.3-.7.7l-1.1 7.4c-.1.5.1.7.5.7s.6-.3.7-.7l.3-1.7 2-.1-.3 1.7c-.3 1.8-1.3 2.7-3 2.8-1.5.1-2.2-.5-2.3-1.7v-.8l1.1-7.4c.4-1.7 1.4-2.7 3.1-2.8z"/></g></g><g><path d="M23.2 19l3 2.6c-.4-.3-1-.5-1.8-.4-1.8.1-2.9 1.2-3.2 3.2l-3-2.6c.3-2 1.4-3 3.2-3.2.9 0 1.4.1 1.8.4z"/><path d="M18.3 21.8l2.9 2.6-.6 4-2.9-2.6z"/><path d="M23.7 33.8l-3-2.6c-2.3-2-3.3-3.8-3.1-5.4l3 2.6c-.2 1.6.8 3.4 3.1 5.4zM28.4 13.8l3 2.6c1.6 1.4 2.1 3.8 1.6 7.2L30 21c.5-3.4 0-5.8-1.6-7.2zM17.3 37.6l3 2.6c-.5-.4-1-.9-1.6-1.3-.4-.3-.7-.5-1-.8l-3-2.6c.3.3.6.5 1 .8.5.4 1.1.8 1.6 1.3zM29.1 26.9l3 2.6-6.3.4-3-2.6z"/><path d="M30 20.9l3 2.7-.9 5.9-3-2.6zM15 42.8l3 2.6-.9 6-2.9-2.6z"/><path d="M17.6 53.7l-3-2.6c-.5-.4-.7-1.2-.5-2.4l3 2.6c-.2 1.2 0 2 .5 2.4zM23.4 33.4l3 2.6c2.7 2.4 3.8 5.4 3.3 8.9l-3-2.6c.6-3.5-.5-6.5-3.3-8.9zM26.7 42.4l3 2.6-.9 5.6-2.9-2.7z"/><path d="M12.4 59l-3-2.6c1.3 1.1 3.3 1.6 6 1.4 6-.4 9.5-3.7 10.4-9.9l3 2.6c-.9 6.2-4.4 9.5-10.4 9.9-2.7.2-4.7-.2-6-1.4z"/><path d="M22.4 12.3c6-.4 8.5 2.5 7.6 8.6l-.9 5.9-6.3.4.9-5.9c.3-2-.4-2.9-2.2-2.8-1.8.1-2.9 1.2-3.2 3.2l-.6 4c-.3 2 1.3 4.2 4.8 6.8 3.5 2.6 4.9 5.8 4.3 9.8l-.9 5.6c-.9 6.2-4.4 9.5-10.4 9.9-6 .4-8.5-2.5-7.6-8.6l.9-5.9 6.3-.4-.9 5.9c-.3 2 .4 2.9 2.3 2.8 1.8-.1 2.9-1.2 3.2-3.2l.8-5c.3-2.1-1.3-4.5-4.7-7-3.5-2.6-4.9-5.9-4.3-9.9l.6-4.1c.8-6.4 4.3-9.7 10.3-10.1zM42.7 11.6l2.9 2.6-5.4 35.6-3-2.7z"/><path d="M40.7 52.1l-3-2.6c-.5-.4-.7-1.2-.5-2.4l3 2.6c-.2 1.2 0 2 .5 2.4zM54.4 10.8l3 2.6-5.5 35.5-2.9-2.6z"/><path d="M54.4 10.8L49 46.3c-.9 6.2-4.4 9.5-10.4 9.9-6 .4-8.5-2.5-7.6-8.6L36.4 12l6.3-.4-5.4 35.5c-.3 2 .4 2.9 2.2 2.8 1.8-.1 2.9-1.2 3.2-3.2l5.4-35.5 6.3-.4z"/><path d="M35.5 57.4l-3-2.6c1.3 1.1 3.3 1.6 6 1.4 6-.4 9.5-3.7 10.4-9.9l3 2.6c-.9 6.2-4.4 9.5-10.4 9.9-2.7.2-4.7-.2-6-1.4zM66.2 10l2.9 2.6 2.8 29.7-3-2.7zM63 29.3l3 2.6-3.8 24.8-3-2.6z"/><path d="M59.2 54.1l3 2.6-6.1.4-2.9-2.6zM69 53.4l3 2.6-4.3.3-2.9-2.6z"/><path d="M78.1 28.3l3 2.6L72 56l-3-2.6z"/><path d="M87.1 8.5l-6.7 44.1-6 .4 3.7-24.7L69 53.4l-4.2.3L63 29.3l-3.8 24.8-6 .4 6.7-44.1 6.3-.4 2.7 29.6L80.8 8.9z"/><path d="M80.4 52.6l2.9 2.6-6 .4-2.9-2.6z"/><path d="M87.1 8.5l2.9 2.6-6.7 44.1-2.9-2.6zM99.1 7.6l3 2.7 2.7 29.7-2.9-2.7zM92.2 51.8l2.9 2.6-6 .4-3-2.6z"/><path d="M96 27l2.9 2.6-3.8 24.8-2.9-2.6zM111.1 26l2.9 2.6-9.1 25.1-3-2.6z"/><path d="M101.9 51.1l3 2.6-4.3.3-2.9-2.6zM131.1 11.6l2.9 2.6-1.9 12.7-2.9-2.6zM142 4.6l3 2.7-1 6.2-2.9-2.6z"/><path d="M141.1 10.9l2.9 2.6-10 .7-2.9-2.6zM113.3 50.3l3 2.6-6.1.4-2.9-2.6z"/><path d="M120 6.2l-6.7 44.1-6 .4 3.8-24.7-9.2 25.1-4.2.3L96 27l-3.8 24.8-6.1.4 6.7-44.1 6.3-.5 2.8 29.7 11.9-30.7z"/><path d="M120 6.2l3 2.6-6.7 44.1-3-2.6zM154.2 10l2.9 2.6-2.2.2-2.9-2.6zM137.7 23.7l3 2.6-1 6.3-2.9-2.6z"/><path d="M136.8 30l2.9 2.6-8.6.6-2.9-2.6zM128.2 30.6l2.9 2.6-1.9 12.6-2.9-2.6zM155.9 10.4l3 2.6c-.4-.3-1-.5-1.8-.4l-3-2.6c.9 0 1.5.1 1.8.4zM152 10.2l2.9 2.6-1.9 12.6-2.9-2.6zM161.1 5l3 2.6c1.6 1.4 2.1 3.8 1.6 7.4l-3-2.6c.5-3.5 0-6-1.6-7.4zM150 28.5l2.9 2.7-.8.1-2.9-2.6z"/><path d="M142 4.6l-.9 6.3-10 .7-1.9 12.7 8.5-.6-.9 6.3-8.6.6-1.9 12.6 9.9-.7-.9 6.3-16.3 1.1 6.8-44.1zM135.3 48.8l3 2.6-16.3 1.1-3-2.6z"/><path d="M136.2 42.5l3 2.6-.9 6.3-3-2.6zM162.7 12.4l3 2.6-1 6.6-3-2.6z"/><path d="M161.7 19l3 2.6c-.6 3.9-2.6 6.6-6.1 8l-3-2.6c3.5-1.4 5.5-4.1 6.1-8zM146.2 48l3 2.6-6.3.4-3-2.6z"/><path d="M149.2 28.7l2.9 2.6-2.9 19.3-3-2.6z"/><path d="M155.8 3.7c5.6-.4 7.9 2.5 6.9 8.7l-1 6.6c-.6 3.9-2.6 6.6-6.1 8l3.9 20-6.9.5-2.7-19-.8.2-2.9 19.3-6.3.4 6.7-44.1 9.2-.6zm.7 9.1c.3-2-.5-2.9-2.3-2.8l-2.2.2-1.9 12.6 1.4-.1c.9-.1 1.5-.2 1.8-.3 1.2-.5 1.9-1.5 2.1-2.9l1.1-6.7z"/><path d="M159.5 47.1l3 2.6-6.9.5-3-2.7z"/><path d="M155.6 27l2.9 2.6 4 20.1-3-2.6z"/><g><path d="M17.1 65.8l3 2.6 2.7 29.7-2.9-2.6zM14 85.1l2.9 2.7-3.8 24.7-2.9-2.6z"/><path d="M10.2 109.9l2.9 2.6-6 .4-3-2.6zM51.5 68.9l3 2.6c-1.8.1-2.9 1.2-3.2 3.2l-3-2.6c.3-2 1.3-3.1 3.2-3.2zM53.3 69.3l3 2.6c-.4-.3-1-.5-1.8-.4l-3-2.6c.8-.1 1.4.1 1.8.4zM29.1 84.1l2.9 2.6-9.1 25.1-3-2.6zM19.9 109.2l3 2.6-4.2.3-3-2.6zM58.4 64l3 2.6c1.6 1.4 2.1 3.8 1.6 7.2l-3-2.6c.6-3.4 0-5.8-1.6-7.2zM38 64.3l3 2.6-6.7 44.1-3-2.6z"/><path d="M38 64.3l-6.7 44.1-6 .4 3.8-24.7-9.2 25.1-4.2.3L14 85.1l-3.8 24.8-6.1.4 6.7-44.1 6.3-.4 2.8 29.7 11.9-30.8z"/><path d="M31.3 108.4l3 2.6-6 .4-3-2.6zM48.3 72.1l3 2.6-4.2 26.9-2.9-2.6z"/><path d="M47.6 104l-3-2.6c-.5-.4-.7-1.2-.5-2.4l3 2.6c-.1 1.2 0 2 .5 2.4zM60 71.2l3 2.7-4.1 26.9-3-2.6z"/><path d="M42.5 109.3l-3-2.6c1.3 1.1 3.3 1.6 6 1.4 6-.4 9.5-3.7 10.4-9.9l3 2.6c-1 6.2-4.4 9.5-10.4 9.9-2.7.2-4.7-.2-6-1.4z"/><path d="M52.4 62.6c6-.4 8.5 2.4 7.6 8.6l-4.1 27c-1 6.2-4.4 9.5-10.4 9.9-6 .4-8.5-2.5-7.6-8.7l4.1-27c1-6.1 4.5-9.4 10.4-9.8zm1.4 9.1c.3-2-.5-2.9-2.3-2.8-1.8.1-2.9 1.2-3.2 3.2l-4.1 27c-.3 2 .5 2.9 2.3 2.8 1.8-.1 2.9-1.2 3.2-3.2l4.1-27z"/></g><g><path d="M86.1 60.9l3 2.7-4.4 15.8-3-2.7zM71 62l2.9 2.6-.7 33.7-3-2.6z"/><path d="M86.1 60.9l-4.4 15.8-8.7 28.8-8.6.6-.1-28.2.3-15.4L71 62l-.8 33.7 9.6-34.3zM73 105.5l2.9 2.6-8.6.6-2.9-2.6z"/><path d="M81.7 76.7l3 2.7-8.8 28.7-2.9-2.6zM107.4 65.7l3 2.6-1.9 12.6-3-2.6z"/><path d="M117.4 65l3 2.6-10 .7-3-2.6z"/><path d="M118.4 58.7l2.9 2.6-.9 6.3-3-2.6zM89.6 104.3l2.9 2.6-6.3.5-2.9-2.6z"/><path d="M96.3 60.2l-6.7 44.1-6.3.5L90 60.7z"/><path d="M96.3 60.2l2.9 2.7-6.7 44-2.9-2.6zM114.1 77.7l3 2.6-1 6.3-3-2.6z"/><path d="M113.1 84l3 2.6-8.6.6-3-2.6z"/><path d="M104.5 84.6l3 2.6-1.9 12.6-3-2.6zM132.5 63.8l3 2.6c-.4-.3-1-.5-1.8-.4-1.8.1-2.9 1.2-3.2 3.2l-3-2.6c.3-2 1.4-3.1 3.2-3.2.8-.1 1.4 0 1.8.4z"/><path d="M127.5 66.5l3 2.6-.6 4-3-2.6zM133 78.6l-3-2.6c-2.3-2-3.3-3.8-3-5.4l3 2.6c-.3 1.5.7 3.4 3 5.4zM137.7 58.5l3 2.6c1.6 1.4 2.1 3.8 1.6 7.2l-3-2.6c.5-3.4 0-5.8-1.6-7.2zM126.6 82.3l3 2.6c-.5-.4-1-.9-1.6-1.3-.3-.3-.7-.5-1-.8l-3-2.6c.3.3.6.5 1 .8.5.5 1.1.9 1.6 1.3zM138.4 71.6l2.9 2.7-6.2.4-3-2.6z"/><path d="M139.3 65.7l2.9 2.6-.9 6-2.9-2.7zM112.6 96.5l3 2.6-1 6.3-3-2.6zM118.4 58.7l-1 6.3-10 .7-1.9 12.6 8.6-.6-1 6.3-8.6.6-1.9 12.6 10-.7-1 6.3-16.2 1.1 6.7-44.1z"/><path d="M111.6 102.8l3 2.6-16.2 1.1-3-2.6zM124.3 87.6l3 2.6-.9 5.9-3-2.6z"/><path d="M126.9 98.5l-3-2.6c-.5-.5-.7-1.2-.5-2.4l3 2.6c-.2 1.1 0 1.9.5 2.4zM132.7 78.2l3 2.6c2.7 2.4 3.8 5.4 3.3 8.9l-3-2.6c.6-3.5-.5-6.5-3.3-8.9z"/><path d="M136 87.1l3 2.6-.9 5.6-2.9-2.6zM121.7 103.8l-3-2.6c1.3 1.1 3.3 1.6 6 1.4 6-.4 9.5-3.7 10.4-9.9l3 2.6c-.9 6.2-4.4 9.5-10.4 9.9-2.7.2-4.7-.3-6-1.4z"/><path d="M131.7 57.1c6-.4 8.5 2.4 7.6 8.6l-.9 5.9-6.3.4.9-5.9c.3-2-.4-2.9-2.3-2.8-1.8.1-2.9 1.2-3.2 3.2l-.6 4c-.3 2 1.3 4.2 4.7 6.8 3.5 2.6 4.9 5.8 4.3 9.8l-.8 5.6c-.9 6.2-4.4 9.5-10.4 9.9-6 .4-8.5-2.5-7.6-8.7l.9-5.9 6.3-.4-.9 5.9c-.3 2 .5 2.9 2.3 2.8s2.9-1.2 3.2-3.2l.8-5c.3-2.1-1.2-4.5-4.7-7-3.5-2.6-4.9-5.9-4.3-9.9l.6-4.1c.9-6.3 4.4-9.6 10.4-10z"/></g><g><path d="M153 56l3 2.6.4 6-2.9-2.7zM152 62.4l3 2.6-.9 5.9-3-2.6z"/><path d="M151.1 68.3l3 2.6-2 .1-2.9-2.6z"/><path d="M156.3 55.8l-1.9 12.3-2 .1-.4-5.8-.9 5.9-1.9.1 1.9-12.3 1.9-.1.5 5.9.9-6zM156.3 55.8l2.9 2.6-1.8 12.3-3-2.6z"/><path d="M154.4 68.1l3 2.6-2 .1-3-2.6z"/></g><g><path d="M151.4 72.3l3 2.6.3 4.7-2.9-2.6z"/><path d="M155.7 72l2.9 2.6-3.2 7.2-2.9-2.6z"/><path d="M152.5 79.2l2.9 2.6v.1l-3-2.6z"/><path d="M155.7 72l-3.2 7.2-.1.1-.8 5.2-2 .1.8-5.2v-.1l-1.1-6.8 2.1-.2.4 4.7 1.7-4.8z"/><path d="M152.4 79.3l3 2.6-.8 5.2-3-2.6z"/><path d="M151.6 84.5l3 2.6-2 .1-3-2.6z"/></g><g><path d="M151.2 90.3l3 2.6c-.1-.1-.2-.1-.4-.1-.4 0-.6.3-.7.7l-3-2.6c.1-.5.3-.7.7-.7.2 0 .4.1.4.1zM152.9 88.7l3 2.6c.3.3.5.7.5 1.3 0 .2 0 .5-.1.8l-3-2.6c.1-.3.1-.5.1-.8 0-.6-.2-1-.5-1.3zM150.2 91l2.9 2.6-1.1 7.4-2.9-2.6z"/><path d="M153.1 92.5l3 2.6-2 .2-3-2.7zM153.4 90.8l2.9 2.6-.2 1.7-3-2.6zM152.1 101.5l-3-2.6c-.1-.1-.2-.3-.1-.6l3 2.6c0 .3 0 .5.1.6zM152.5 96.4l3 2.6-.3 1.7-2.9-2.6z"/><path d="M150.5 103.2l-3-2.6c.4.3 1 .5 1.7.4 1.7-.1 2.8-1.1 3-2.8l3 2.6c-.3 1.8-1.3 2.7-3 2.8-.8 0-1.4-.1-1.7-.4z"/><path d="M151.2 88.3c1.5-.1 2.2.5 2.3 1.7 0 .2 0 .5-.1.8l-.3 1.7-2 .1.3-1.7c.1-.5-.1-.7-.5-.7s-.6.3-.7.7l-1.1 7.4c-.1.5.1.7.5.7s.6-.3.7-.7l.3-1.7 2-.1-.3 1.7c-.3 1.8-1.3 2.7-3 2.8-1.5.1-2.2-.5-2.3-1.7v-.8l1.1-7.4c.3-1.7 1.3-2.7 3.1-2.8z"/></g></g><g><path fill="#EFBB81" d="M20.3 16.4l3 2.6c-.4-.3-1-.5-1.8-.4-1.8.1-2.9 1.2-3.2 3.2l-3-2.6c.3-2 1.4-3 3.2-3.2.8-.1 1.4.1 1.8.4z"/><path fill="#EFBB81" d="M15.3 19.2l3 2.6-.6 4-3-2.6zM20.7 31.2l-3-2.6c-2.3-2-3.3-3.8-3.1-5.4l3 2.6c-.2 1.6.8 3.4 3.1 5.4zM25.4 11.1l3 2.6c1.6 1.4 2.1 3.8 1.6 7.2l-3-2.6c.5-3.4 0-5.8-1.6-7.2zM14.3 34.9l3 2.6c-.5-.4-1-.9-1.6-1.3-.4-.3-.7-.5-1-.8l-3-2.6c.3.3.6.5 1 .8.6.5 1.1.9 1.6 1.3zM26.1 24.3l3 2.6-6.3.4-2.9-2.6z"/><path fill="#EFBB81" d="M27 18.3l3 2.6-.9 6-3-2.6zM12.1 40.2l2.9 2.6-.8 6-3-2.7z"/><path fill="#EFBB81" d="M14.6 51.1l-3-2.6c-.5-.4-.7-1.2-.5-2.4l3 2.6c-.1 1.2 0 2 .5 2.4zM20.5 30.8l3 2.6c2.7 2.4 3.8 5.4 3.3 8.9l-3-2.6c.5-3.5-.6-6.5-3.3-8.9zM23.8 39.7l2.9 2.7-.8 5.5-3-2.6z"/><path fill="#EFBB81" d="M9.5 56.4l-3-2.6c1.3 1.1 3.3 1.6 6 1.4 6-.4 9.5-3.7 10.4-9.9l3 2.6c-.9 6.2-4.4 9.5-10.4 9.9-2.7.2-4.7-.3-6-1.4z"/><path fill="#EFBB81" d="M19.4 9.7c6-.4 8.5 2.5 7.6 8.6l-.9 5.9-6.3.4.9-5.9c.3-2-.4-2.9-2.2-2.8-1.8.1-2.9 1.2-3.2 3.2l-.6 4c-.3 2 1.3 4.2 4.8 6.8 3.5 2.6 4.9 5.8 4.3 9.8l-.9 5.6c-.9 6.2-4.4 9.5-10.4 9.9-6 .4-8.5-2.5-7.6-8.6l.9-5.9 6.3-.4-.9 5.9c-.3 2 .4 2.9 2.3 2.8 1.8-.1 2.9-1.2 3.2-3.2l.8-5c.3-2.1-1.3-4.5-4.7-7-3.5-2.6-4.9-5.9-4.3-9.9l.5-4.3c1-6.2 4.4-9.5 10.4-9.9zM39.7 9l3 2.6-5.5 35.5-2.9-2.6zM37.7 49.5l-3-2.6c-.5-.4-.7-1.2-.5-2.4l3 2.6c-.1 1.2 0 2 .5 2.4zM51.4 8.2l3 2.6L49 46.3l-3-2.6z"/><path fill="#EFBB81" d="M51.4 8.2L46 43.7c-.9 6.2-4.4 9.5-10.4 9.9-6 .4-8.5-2.5-7.6-8.6l5.4-35.5 6.3-.5-5.4 35.5c-.3 2 .4 2.9 2.2 2.8 1.8-.1 2.9-1.2 3.2-3.2l5.4-35.5 6.3-.4z"/><path fill="#EFBB81" d="M32.6 54.8l-3-2.6c1.3 1.1 3.3 1.6 6 1.4 6-.4 9.5-3.7 10.4-9.9l3 2.6c-.9 6.2-4.4 9.5-10.4 9.9-2.8.2-4.7-.3-6-1.4zM63.2 7.3l3 2.7 2.7 29.6L66 37zM60.1 26.7l2.9 2.6-3.8 24.8-2.9-2.6zM56.3 51.5l2.9 2.6-6 .4-3-2.6zM66 50.8l3 2.6-4.2.3-3-2.6z"/><path fill="#EFBB81" d="M75.2 25.6l2.9 2.7L69 53.4l-3-2.6z"/><path fill="#EFBB81" d="M84.1 5.9L77.4 50l-6 .4 3.8-24.8L66 50.8l-4.2.3-1.7-24.4-3.8 24.8-6.1.4 6.7-44.1 6.3-.5L66 37 77.9 6.3z"/><path fill="#EFBB81" d="M77.4 50l3 2.6-6 .4-3-2.6z"/><path fill="#EFBB81" d="M84.1 5.9l3 2.6-6.7 44.1-3-2.6zM96.1 5l3 2.6 2.8 29.7-3-2.6zM89.2 49.2l3 2.6-6.1.4-2.9-2.6zM93 24.4l3 2.6-3.8 24.8-3-2.6zM108.1 23.3l3 2.7-9.2 25.1-2.9-2.6z"/><path fill="#EFBB81" d="M99 48.5l2.9 2.6-4.2.3-3-2.6zM128.1 9l3 2.6-1.9 12.7-3-2.7zM139 2l3 2.6-.9 6.3-3-2.6z"/><path fill="#EFBB81" d="M138.1 8.3l3 2.6-10 .7-3-2.6zM110.3 47.7l3 2.6-6 .4-3-2.6z"/><path fill="#EFBB81" d="M117 3.6l-6.7 44.1-6 .4 3.8-24.8L99 48.5l-4.3.3L93 24.4l-3.8 24.8-6 .4 6.7-44.1 6.2-.5 2.8 29.7L110.8 4z"/><path fill="#EFBB81" d="M117 3.6l3 2.6-6.7 44.1-3-2.6zM151.2 7.4l3 2.6-2.2.2-3-2.7zM134.8 21l2.9 2.7-.9 6.3-3-2.7z"/><path fill="#EFBB81" d="M133.8 27.3l3 2.7-8.6.6-3-2.7zM125.2 27.9l3 2.7-1.9 12.6-3-2.6zM153 7.8l3 2.6c-.4-.3-1-.5-1.8-.4l-3-2.6c.8-.1 1.4.1 1.8.4zM149 7.5l3 2.7-1.9 12.6-3-2.6zM158.2 2.4l3 2.6c1.6 1.4 2.1 3.8 1.6 7.4l-3-2.6c.5-3.5 0-6-1.6-7.4zM147 25.9l3 2.6-.8.2-3-2.6z"/><path fill="#EFBB81" d="M139 2l-.9 6.3-10 .7-1.9 12.6 8.6-.6-1 6.3-8.6.6-1.9 12.7 10-.7-1 6.2-16.2 1.2 6.7-44.1zM132.3 46.1l3 2.7-16.3 1.1-2.9-2.6zM133.3 39.9l2.9 2.6-.9 6.3-3-2.7zM159.7 9.8l3 2.6-1 6.6-3-2.6z"/><path fill="#EFBB81" d="M158.7 16.4l3 2.6c-.6 3.9-2.6 6.6-6.1 8l-3-2.6c3.5-1.4 5.5-4.1 6.1-8zM143.2 45.4l3 2.6-6.3.4-2.9-2.6z"/><path fill="#EFBB81" d="M146.2 26.1l3 2.6-3 19.3-3-2.6z"/><path fill="#EFBB81" d="M152.8 1.1c5.6-.4 7.9 2.5 6.9 8.7l-1 6.6c-.6 3.9-2.6 6.6-6.1 8l3.9 20-6.9.5-2.7-19-.8.2-2.9 19.3-6.3.4 6.7-44.1 9.2-.6zm.7 9.1c.3-2-.5-2.9-2.3-2.8l-2.2.1-1.9 12.6 1.4-.1c.9-.1 1.5-.2 1.8-.3 1.2-.5 1.9-1.5 2.1-2.9l1.1-6.6z"/><path fill="#EFBB81" d="M156.5 44.4l3 2.7-6.9.4-2.9-2.6z"/><path fill="#EFBB81" d="M152.6 24.4l3 2.6 3.9 20.1-3-2.7z"/><g><path fill="#EFBB81" d="M14.1 63.2l3 2.6 2.8 29.7-3-2.6zM11 82.5l3 2.6-3.8 24.8-3-2.6z"/><path fill="#EFBB81" d="M7.2 107.3l3 2.6-6.1.4-2.9-2.6zM48.5 66.3l3 2.6c-1.8.1-2.9 1.2-3.2 3.2l-3-2.6c.3-2 1.4-3.1 3.2-3.2z"/><path fill="#EFBB81" d="M50.3 66.7l3 2.6c-.4-.3-1-.5-1.8-.4l-3-2.6c.8-.1 1.4.1 1.8.4zM26.1 81.5l3 2.6-9.2 25.1-2.9-2.6zM17 106.6l2.9 2.6-4.2.3-3-2.6zM55.5 61.4l3 2.6c1.6 1.4 2.1 3.8 1.6 7.2l-3-2.6c.5-3.4 0-5.8-1.6-7.2zM35.1 61.7l2.9 2.6-6.7 44.1-3-2.6z"/><path fill="#EFBB81" d="M35.1 61.7l-6.8 44.1-6 .4 3.8-24.7-9.1 25.1-4.3.3L11 82.5l-3.8 24.8-6 .4 6.7-44.1 6.2-.4 2.8 29.7 11.9-30.8z"/><path fill="#EFBB81" d="M28.3 105.8l3 2.6-6 .4-3-2.6zM45.3 69.4l3 2.7L44.2 99l-3-2.6z"/><path fill="#EFBB81" d="M44.7 101.4l-3-2.6c-.5-.4-.7-1.2-.5-2.4l3 2.6c-.2 1.2 0 2 .5 2.4zM57.1 68.6l2.9 2.6-4.1 27-3-2.6z"/><path fill="#EFBB81" d="M39.5 106.7l-3-2.6c1.3 1.1 3.3 1.6 6 1.4 6-.4 9.5-3.7 10.4-9.9l3 2.6c-1 6.2-4.4 9.5-10.4 9.9-2.7.2-4.7-.3-6-1.4z"/><path fill="#EFBB81" d="M49.5 60c6-.4 8.5 2.4 7.6 8.6l-4.1 27c-1 6.2-4.4 9.5-10.4 9.9-6 .4-8.5-2.5-7.6-8.7l4.1-27c.9-6.1 4.4-9.4 10.4-9.8zm1.3 9.1c.3-2-.5-2.9-2.3-2.8-1.8.1-2.9 1.2-3.2 3.2l-4.1 27c-.3 2 .5 2.9 2.3 2.8 1.8-.1 2.9-1.2 3.2-3.2l4.1-27z"/></g><g><path fill="#EFBB81" d="M83.2 58.3l2.9 2.6-4.4 15.8-2.9-2.6zM68 59.4l3 2.6-.8 33.7-3-2.6z"/><path fill="#EFBB81" d="M83.2 58.3l-4.4 15.8-8.8 28.8-8.6.6-.1-28.2.4-15.5 6.3-.4-.8 33.7 9.6-34.3zM70 102.9l3 2.6-8.6.6-3-2.6z"/><path fill="#EFBB81" d="M78.8 74.1l2.9 2.6-8.7 28.8-3-2.6zM104.5 63l2.9 2.7-1.9 12.6-2.9-2.6z"/><path fill="#EFBB81" d="M114.5 62.3l2.9 2.7-10 .7-2.9-2.7z"/><path fill="#EFBB81" d="M115.4 56.1l3 2.6-1 6.3-2.9-2.7zM86.6 101.7l3 2.6-6.3.5-3-2.6z"/><path fill="#EFBB81" d="M93.3 57.6l-6.7 44.1-6.3.5L87 58.1zM93.3 57.6l3 2.6-6.7 44.1-3-2.6zM111.1 75.1l3 2.6-1 6.3-2.9-2.6zM110.2 81.4l2.9 2.6-8.6.6-2.9-2.6zM101.6 82l2.9 2.6-1.9 12.6-2.9-2.6zM129.5 61.2l3 2.6c-.4-.3-1-.5-1.8-.4-1.8.1-2.9 1.2-3.2 3.2l-3-2.6c.3-2 1.4-3.1 3.2-3.2.9-.1 1.4 0 1.8.4z"/><path fill="#EFBB81" d="M124.6 63.9l2.9 2.6-.6 4-2.9-2.6zM130 76l-3-2.6c-2.3-2-3.3-3.8-3-5.4l3 2.6c-.3 1.5.7 3.3 3 5.4zM134.7 55.9l3 2.6c1.6 1.4 2.1 3.8 1.6 7.2l-3-2.6c.5-3.4 0-5.8-1.6-7.2zM123.6 79.7l3 2.6c-.5-.4-1-.9-1.6-1.3-.3-.3-.7-.5-1-.8l-3-2.6c.3.3.6.5 1 .8.6.5 1.1.9 1.6 1.3zM135.4 69l3 2.6-6.3.5-3-2.6z"/><path fill="#EFBB81" d="M136.3 63.1l3 2.6-.9 5.9-3-2.6zM109.6 93.9l3 2.6-1 6.3-2.9-2.6z"/><path fill="#EFBB81" d="M115.4 56.1l-.9 6.2-10 .7-1.9 12.7 8.5-.6-.9 6.3-8.6.6-1.9 12.6 9.9-.7-.9 6.3-16.2 1.1 6.7-44.1zM108.7 100.2l2.9 2.6-16.2 1.1-2.9-2.6zM121.4 84.9l2.9 2.7-.9 5.9-2.9-2.6z"/><path fill="#EFBB81" d="M123.9 95.9l-3-2.6c-.5-.5-.7-1.2-.5-2.4l3 2.6c-.2 1.1 0 1.9.5 2.4zM129.8 75.5l3 2.6c2.7 2.4 3.8 5.4 3.3 8.9l-3-2.6c.5-3.5-.6-6.4-3.3-8.9zM133 84.5l3 2.6-.8 5.6-3-2.6z"/><path fill="#EFBB81" d="M118.8 101.1l-3-2.6c1.3 1.1 3.3 1.6 6 1.4 6-.4 9.5-3.7 10.4-9.9l3 2.6c-.9 6.2-4.4 9.5-10.4 9.9-2.7.3-4.7-.2-6-1.4z"/><path fill="#EFBB81" d="M128.7 54.5c6-.4 8.5 2.4 7.6 8.6l-.9 5.9-6.3.4.9-5.9c.3-2-.4-2.9-2.3-2.8-1.8.1-2.9 1.2-3.2 3.2l-.6 4c-.3 2 1.3 4.2 4.7 6.8 3.5 2.6 4.9 5.8 4.3 9.8l-.8 5.6c-.9 6.2-4.4 9.5-10.4 9.9-6 .4-8.5-2.5-7.6-8.7l.9-5.9 6.3-.4-.9 5.9c-.3 2 .5 2.9 2.3 2.8 1.8-.1 2.9-1.2 3.2-3.2l.8-5c.3-2.1-1.2-4.5-4.7-7-3.5-2.6-4.9-5.9-4.3-9.9l.6-4.1c1-6.3 4.4-9.6 10.4-10z"/></g><g><path fill="#EFBB81" d="M150.1 53.4L153 56l.5 5.9-3-2.6zM149.1 59.8l2.9 2.6-.9 5.9-2.9-2.6z"/><path fill="#EFBB81" d="M148.2 65.7l2.9 2.6-1.9.1-3-2.6z"/><path fill="#EFBB81" d="M153.3 53.1l-1.9 12.3-2 .2-.3-5.8-.9 5.9-2 .1 1.9-12.3 2-.1.4 5.9.9-6z"/><path fill="#EFBB81" d="M153.3 53.1l3 2.7-1.9 12.3-3-2.7z"/><path fill="#EFBB81" d="M151.4 65.4l3 2.7-2 .1-3-2.6z"/></g><g><path fill="#EFBB81" d="M148.5 69.7l2.9 2.6.4 4.7-3-2.6z"/><path fill="#EFBB81" d="M152.7 69.4l3 2.6-3.2 7.2-3-2.7z"/><path fill="#EFBB81" d="M149.5 76.5l3 2.7-.1.1-2.9-2.6z"/><path fill="#EFBB81" d="M152.7 69.4l-3.2 7.1v.2l-.8 5.1-2.1.2.8-5.2v-.1l-1-6.9 2.1-.1.3 4.7 1.8-4.9z"/><path fill="#EFBB81" d="M149.5 76.7l2.9 2.6-.8 5.2-2.9-2.7z"/><path fill="#EFBB81" d="M148.7 81.8l2.9 2.7-2 .1-3-2.6z"/></g><g><path fill="#EFBB81" d="M148.3 87.7l3 2.6c-.1-.1-.2-.1-.4-.1-.4 0-.6.3-.7.7l-3-2.6c.1-.5.3-.7.7-.7.2 0 .3 0 .4.1zM150 86.1l3 2.6c.3.3.5.7.5 1.3 0 .2 0 .5-.1.8l-3-2.6c.1-.3.1-.5.1-.8 0-.6-.2-1-.5-1.3zM147.2 88.4l3 2.6-1.1 7.4-3-2.7z"/><path fill="#EFBB81" d="M150.2 89.9l2.9 2.6-2 .1-3-2.6z"/><path fill="#EFBB81" d="M150.4 88.1l3 2.7-.3 1.7-2.9-2.6zM149.2 98.9l-3-2.6c-.1-.1-.2-.3-.1-.6l3 2.6c-.1.3-.1.5.1.6zM149.6 93.8l2.9 2.6-.2 1.7-3-2.6z"/><path fill="#EFBB81" d="M147.5 100.6l-3-2.6c.4.3 1 .5 1.7.4 1.7-.1 2.8-1.1 3-2.8l3 2.6c-.3 1.8-1.3 2.7-3 2.8-.8 0-1.3-.1-1.7-.4z"/><path fill="#EFBB81" d="M148.2 85.7c1.5-.1 2.2.5 2.3 1.7 0 .2 0 .5-.1.8l-.3 1.7-2 .1.3-1.7c.1-.5-.1-.7-.5-.7s-.6.3-.7.7l-1.1 7.4c-.1.5.1.7.5.7s.6-.3.7-.7l.3-1.7 2-.1-.3 1.7c-.3 1.8-1.3 2.7-3 2.8-1.5.1-2.2-.5-2.3-1.7v-.8l1.1-7.4c.4-1.8 1.4-2.7 3.1-2.8z"/></g></g><g><path d="M19.1 15.4l3 2.6c-.4-.3-1-.5-1.8-.4-1.8.1-2.9 1.2-3.2 3.2l-3-2.6c.3-2 1.4-3 3.2-3.2.8-.1 1.4 0 1.8.4z"/><path d="M14.1 18.1l3 2.6-.6 4-3-2.6zM19.6 30.2l-3-2.6c-2.3-2-3.3-3.8-3.1-5.4l3 2.6c-.3 1.5.8 3.4 3.1 5.4zM24.3 10.1l3 2.6c1.6 1.4 2.1 3.8 1.6 7.2l-3-2.6c.5-3.4 0-5.8-1.6-7.2zM13.1 33.9l3 2.6c-.5-.4-1-.9-1.6-1.3-.4-.3-.7-.5-1-.8l-3-2.6c.3.3.6.5 1 .8.6.5 1.2.9 1.6 1.3zM25 23.2l2.9 2.6-6.2.5-3-2.6z"/><path d="M25.9 17.3l2.9 2.6-.9 5.9-2.9-2.6zM10.9 39.2l3 2.6-.9 5.9-3-2.6z"/><path d="M13.5 50.1l-3-2.6c-.5-.5-.7-1.3-.5-2.4l3 2.6c-.2 1.1 0 1.9.5 2.4zM19.3 29.8l3 2.6c2.7 2.4 3.8 5.4 3.3 8.9l-3-2.6c.6-3.5-.5-6.5-3.3-8.9zM22.6 38.7l3 2.6-.9 5.6-2.9-2.6z"/><path d="M8.3 55.4l-3-2.6c1.3 1.1 3.3 1.6 6 1.4 6-.4 9.5-3.7 10.4-9.9l3 2.6c-.9 6.2-4.4 9.5-10.4 9.9-2.7.2-4.7-.3-6-1.4z"/><path fill="#FDE46E" d="M18.3 8.7c6-.4 8.5 2.5 7.6 8.6l-.9 5.9-6.3.4.9-5.9c.3-2-.4-2.9-2.2-2.8-1.8.1-2.9 1.2-3.2 3.2l-.6 4c-.3 2 1.3 4.2 4.8 6.8 3.5 2.6 4.9 5.8 4.3 9.8l-.9 5.6c-.9 6.2-4.4 9.5-10.4 9.9-6 .4-8.5-2.5-7.6-8.6l.9-5.9 6.3-.4-1 5.8c-.3 2 .4 2.9 2.3 2.8 1.8-.1 2.9-1.2 3.2-3.2l.8-5c.3-2.1-1.3-4.5-4.7-7-3.5-2.6-4.9-5.9-4.3-9.9l.6-4.1c.9-6.3 4.4-9.6 10.4-10z"/><path d="M38.6 7.9l2.9 2.7-5.4 35.5-3-2.6z"/><path d="M36.6 48.5l-3-2.6c-.5-.4-.7-1.2-.5-2.4l3 2.6c-.2 1.1 0 1.9.5 2.4zM50.3 7.1l2.9 2.6-5.4 35.6-3-2.6z"/><path fill="#FDE46E" d="M50.3 7.1l-5.4 35.5c-.9 6.2-4.4 9.5-10.4 9.9-6 .4-8.5-2.5-7.6-8.6l5.4-35.5 6.3-.4-5.4 35.5c-.3 2 .4 2.9 2.2 2.8 1.8-.1 2.9-1.2 3.2-3.2L44 7.6l6.3-.5z"/><path d="M31.4 53.8l-3-2.6c1.3 1.1 3.3 1.6 6 1.4 6-.4 9.5-3.7 10.4-9.9l3 2.6c-.9 6.2-4.4 9.5-10.4 9.9-2.7.2-4.7-.3-6-1.4zM62 6.3l3 2.6 2.8 29.7-3-2.6zM58.9 25.7l3 2.6L58.1 53l-3-2.6z"/><path d="M55.1 50.4l3 2.6-6.1.5-2.9-2.7zM64.9 49.7l2.9 2.6-4.2.3-3-2.6z"/><path d="M74 24.6l3 2.6-9.2 25.1-2.9-2.6z"/><path fill="#FDE46E" d="M83 4.8l-6.8 44.1-6 .5L74 24.6l-9.1 25.1-4.3.3-1.7-24.3-3.8 24.7-6 .4 6.7-44.1 6.2-.4L64.8 36 76.7 5.3z"/><path d="M76.2 48.9l3 2.7-6 .4-3-2.6z"/><path d="M83 4.8l2.9 2.7-6.7 44.1-3-2.7zM95 4l2.9 2.6 2.8 29.7-3-2.6zM88 48.1l3 2.6-6 .5-3-2.7z"/><path d="M91.8 23.4l3 2.6L91 50.7l-3-2.6zM107 22.3l2.9 2.6-9.1 25.1-3-2.6zM97.8 47.4l3 2.6-4.3.3-2.9-2.6zM127 8l2.9 2.6-1.9 12.6-3-2.6zM137.9 1l2.9 2.6-.9 6.3-3-2.6z"/><path d="M136.9 7.3l3 2.6-10 .7L127 8zM109.2 46.6l2.9 2.7-6 .4-2.9-2.6z"/><path fill="#FDE46E" d="M115.9 2.5l-6.7 44.1-6 .5 3.8-24.8-9.2 25.1-4.2.3-1.8-24.3L88 48.1l-6 .4 6.7-44.1L95 4l2.7 29.7L109.6 3z"/><path d="M115.9 2.5l3 2.6-6.8 44.2-2.9-2.7zM150.1 6.4L153 9l-2.2.1-3-2.6zM133.6 20l3 2.6-1 6.3-3-2.6z"/><path d="M132.6 26.3l3 2.6-8.6.6-2.9-2.6z"/><path d="M124.1 26.9l2.9 2.6-1.9 12.6-3-2.6zM151.8 6.8l3 2.6c-.4-.3-1-.5-1.8-.4l-3-2.6c.8-.1 1.4 0 1.8.4zM147.8 6.5l3 2.6-1.9 12.7-3-2.7zM157 1.4l3 2.6c1.6 1.4 2.1 3.8 1.6 7.4l-3-2.6c.5-3.6 0-6-1.6-7.4zM145.8 24.9l3 2.6-.8.2-3-2.7z"/><path fill="#FDE46E" d="M137.9 1l-1 6.3-9.9.7-2 12.6 8.6-.6-1 6.3-8.5.6-2 12.6 10-.7-.9 6.3-16.3 1.1 6.7-44.1z"/><path d="M131.2 45.1l2.9 2.6-16.2 1.2-3-2.7zM132.1 38.8l3 2.6-1 6.3-2.9-2.6zM158.6 8.7l3 2.7-1.1 6.6-2.9-2.6z"/><path d="M157.6 15.4l3 2.6c-.6 3.9-2.6 6.6-6.1 8l-3-2.6c3.4-1.5 5.5-4.1 6.1-8zM142.1 44.3L145 47l-6.2.4-3-2.6z"/><path d="M145 25l3 2.7-3 19.3-2.9-2.7z"/><path fill="#FDE46E" d="M151.6 0c5.6-.4 7.9 2.5 6.9 8.7l-1 6.6c-.6 3.9-2.6 6.6-6.1 8l3.9 20-6.9.5-2.7-19-.7.2-2.9 19.3-6.3.4L142.5.6l9.1-.6zm.7 9.2c.3-2-.5-2.9-2.3-2.8l-2.2.2-1.9 12.6 1.4-.1c.9-.1 1.5-.2 1.8-.3 1.2-.5 1.9-1.5 2.1-2.9l1.1-6.7z"/><path d="M155.4 43.4l2.9 2.6-6.8.5-3-2.6z"/><path d="M151.5 23.4l2.9 2.6 3.9 20-2.9-2.6z"/><g><path d="M13 62.1l2.9 2.6 2.8 29.7-3-2.6zM9.8 81.5l3 2.6L9 108.8l-2.9-2.6z"/><path d="M6.1 106.2l2.9 2.6-6 .5-3-2.7zM47.4 65.2l3 2.6c-1.9.2-3 1.2-3.3 3.2l-3-2.6c.4-2 1.4-3 3.3-3.2z"/><path d="M49.1 65.7l3 2.6c-.4-.3-1-.5-1.8-.4l-3-2.6c.9-.1 1.4 0 1.8.4zM25 80.4l2.9 2.6-9.1 25.2-3-2.7z"/><path d="M15.8 105.5l3 2.7-4.3.3-2.9-2.7zM54.3 60.4l3 2.6c1.6 1.4 2.1 3.8 1.6 7.2l-3-2.6c.5-3.4 0-5.8-1.6-7.2zM33.9 60.7l3 2.6-6.8 44.1-2.9-2.7z"/><path fill="#FDE46E" d="M33.9 60.7l-6.7 44-6 .5L25 80.4l-9.2 25.1-4.2.3-1.8-24.3-3.7 24.7-6.1.4 6.7-44 6.3-.5 2.7 29.7 11.9-30.7z"/><path d="M27.2 104.7l2.9 2.7-6 .4-2.9-2.6zM44.2 68.4l2.9 2.6L43 98l-3-2.6z"/><path d="M43.5 100.4l-3-2.6c-.5-.4-.7-1.2-.5-2.4l3 2.6c-.2 1.1 0 1.9.5 2.4zM55.9 67.6l3 2.6-4.1 27-3-2.6z"/><path d="M38.4 105.7l-3-2.6c1.3 1.1 3.3 1.6 6 1.4 6-.4 9.5-3.7 10.4-9.9l3 2.6c-1 6.2-4.4 9.5-10.4 9.9-2.8.2-4.7-.3-6-1.4z"/><path fill="#FDE46E" d="M48.3 59c6-.4 8.5 2.4 7.6 8.6l-4.1 27c-1 6.2-4.4 9.5-10.4 9.9-6 .4-8.5-2.5-7.6-8.7l4.1-27c1-6.1 4.4-9.4 10.4-9.8zm1.3 9c.3-2-.5-2.9-2.3-2.8-1.8.1-2.9 1.2-3.2 3.2l-4.1 27c-.3 2 .5 2.9 2.3 2.8 1.8-.1 2.9-1.2 3.2-3.2l4.1-27z"/></g><g><path d="M82 57.3l3 2.6-4.4 15.8-3-2.6zM66.9 58.4l2.9 2.6-.8 33.6-2.9-2.6z"/><path fill="#FDE46E" d="M82 57.3l-4.4 15.8-8.8 28.7-8.5.6-.1-28.1.3-15.5 6.4-.4-.8 33.6 9.6-34.3z"/><path d="M68.8 101.8l3 2.6-8.6.6-2.9-2.6z"/><path d="M77.6 73.1l3 2.6-8.8 28.7-3-2.6zM103.3 62l3 2.6-1.9 12.6-3-2.6zM113.3 61.3l3 2.6-10 .7-3-2.6z"/><path d="M114.3 55l2.9 2.7-.9 6.2-3-2.6zM85.4 100.7l3 2.6-6.3.4-2.9-2.6z"/><path fill="#FDE46E" d="M92.1 56.6l-6.7 44.1-6.2.4L85.9 57z"/><path d="M92.1 56.6l3 2.6-6.7 44.1-3-2.6zM110 74l3 2.6-1 6.3-3-2.6z"/><path d="M109 80.3l3 2.6-8.6.6-3-2.6zM100.4 80.9l3 2.6-1.9 12.7-3-2.6zM128.4 60.1l3 2.6c-.4-.3-1-.5-1.8-.4-1.8.1-2.9 1.2-3.2 3.2l-3-2.6c.3-2 1.4-3.1 3.2-3.2.8-.1 1.4.1 1.8.4z"/><path d="M123.4 62.9l3 2.6-.6 4-3-2.6z"/><path d="M128.8 74.9l-3-2.6c-2.3-2-3.3-3.8-3-5.4l3 2.6c-.3 1.6.7 3.4 3 5.4zM133.5 54.9l3 2.6c1.6 1.4 2.1 3.8 1.6 7.2l-3-2.6c.6-3.5 0-5.9-1.6-7.2zM122.4 78.7l3 2.6c-.5-.4-1-.9-1.6-1.3-.3-.3-.7-.5-1-.8l-3-2.6c.3.3.6.5 1 .8.6.4 1.2.9 1.6 1.3zM134.3 68l2.9 2.6-6.3.4-2.9-2.6z"/><path d="M135.1 62l3 2.7-.9 5.9-2.9-2.6zM108.5 92.9l2.9 2.6-.9 6.2-3-2.6z"/><path fill="#FDE46E" d="M114.3 55l-1 6.3-10 .7-1.9 12.6 8.6-.6-1 6.3-8.6.6-1.9 12.7 10-.7-1 6.2-16.2 1.2L98 56.2z"/><path d="M107.5 99.1l3 2.6-16.2 1.2-3-2.6zM120.2 83.9l3 2.6-.9 6-3-2.7z"/><path d="M122.8 94.8l-3-2.6c-.5-.5-.7-1.2-.5-2.4l3 2.6c-.2 1.2 0 2 .5 2.4zM128.6 74.5l3 2.6c2.7 2.4 3.8 5.4 3.3 8.9l-3-2.6c.5-3.5-.6-6.5-3.3-8.9zM131.9 83.5l2.9 2.6-.8 5.5-3-2.6z"/><path d="M117.6 100.1l-3-2.6c1.3 1.1 3.3 1.6 6 1.4 6-.4 9.5-3.7 10.4-9.9l3 2.6c-.9 6.2-4.4 9.5-10.4 9.9-2.7.2-4.7-.3-6-1.4z"/><path fill="#FDE46E" d="M127.5 53.4c6-.4 8.5 2.4 7.6 8.6l-.9 5.9-6.3.4.9-5.9c.3-2-.4-2.9-2.3-2.8-1.8.1-2.9 1.2-3.2 3.2l-.6 4c-.3 2 1.3 4.2 4.7 6.8 3.5 2.6 4.9 5.8 4.3 9.8L131 89c-.9 6.2-4.4 9.5-10.4 9.9-6 .4-8.5-2.5-7.6-8.7l.9-5.9 6.3-.4-.9 5.9c-.3 2 .5 2.9 2.3 2.8 1.8-.1 2.9-1.2 3.2-3.2l.8-5c.3-2.1-1.2-4.5-4.7-7-3.5-2.6-4.9-5.9-4.3-9.9l.6-4.1c.9-6.3 4.4-9.6 10.3-10z"/></g><g><path d="M148.9 52.3l3 2.6.4 6-3-2.6zM147.9 58.7l3 2.7-.9 5.8-3-2.6z"/><path d="M147 64.6l3 2.6-2 .2-2.9-2.6z"/><path fill="#FDE46E" d="M152.1 52.1l-1.8 12.3-2 .1-.4-5.8-.9 5.9-1.9.2 1.8-12.3 2-.2.4 6 1-6.1z"/><path d="M152.1 52.1l3 2.6-1.9 12.3-2.9-2.6z"/><path d="M150.3 64.4l2.9 2.6-2 .2-2.9-2.7z"/></g><g><path d="M147.3 68.7l3 2.6.3 4.6-3-2.6z"/><path d="M151.5 68.4l3 2.6-3.2 7.1-3-2.6z"/><path d="M148.3 75.5l3 2.6v.1l-3-2.6z"/><path fill="#FDE46E" d="M151.5 68.4l-3.2 7.1v.1l-.8 5.2-2 .1.8-5.1-.1-.2-1-6.8 2.1-.1.3 4.6 1.8-4.8z"/><path d="M148.3 75.6l3 2.6-.8 5.2-3-2.6z"/><path d="M147.5 80.8l3 2.6-2.1.2-2.9-2.7z"/></g><g><path d="M147.1 86.7l3 2.6c-.1-.1-.2-.1-.4-.1-.4 0-.6.3-.7.7l-3-2.6c.1-.5.3-.7.7-.7.2 0 .3 0 .4.1zM148.8 85l3 2.6c.3.3.5.7.5 1.3 0 .2 0 .5-.1.8l-3-2.6c.1-.3.1-.5.1-.8 0-.5-.2-1-.5-1.3z"/><path d="M146 87.3l3 2.6-1.1 7.4-3-2.6z"/><path d="M149 88.8l3 2.7-2.1.1L147 89zM149.3 87.1l2.9 2.6-.2 1.8-3-2.7zM148 97.9l-3-2.6c-.1-.1-.2-.3-.1-.6l3 2.6c-.1.3 0 .5.1.6zM148.4 92.7l3 2.6-.3 1.8-3-2.6z"/><path d="M146.3 99.5l-3-2.6c.4.3 1 .5 1.7.4 1.7-.1 2.8-1.1 3-2.8l3 2.6c-.3 1.8-1.3 2.7-3 2.8-.7.1-1.3-.1-1.7-.4z"/><path fill="#FDE46E" d="M147 84.6c1.5-.1 2.2.5 2.3 1.7 0 .2 0 .5-.1.8l-.3 1.7-2 .1.3-1.7c.1-.5-.1-.7-.5-.7s-.6.3-.7.7l-1.1 7.4c-.1.5.1.7.5.7s.6-.3.7-.7l.3-1.7 2-.1-.3 1.7c-.3 1.8-1.3 2.7-3 2.8-1.5.1-2.2-.5-2.3-1.7v-.8l1.1-7.4c.4-1.7 1.4-2.6 3.1-2.8z"/></g></g></svg>