<svg xmlns="http://www.w3.org/2000/svg" width="35" height="32"><path d="M0 19.25q0-2.89 1.773-5.133t4.57-2.93q.78-3.406 3.508-5.594t6.26-2.188q3.437 0 6.132 2.133t3.508 5.477h.53q2.235 0 4.142 1.102t3.016 3 1.11 4.133q0 3.313-2.314 5.703t-5.625 2.5q-.33 0-.33-.28v-2.22q0-.297.33-.297 2.124-.11 3.632-1.695t1.508-3.71q0-2.22-1.61-3.828t-3.858-1.61h-2.688q-.297 0-.297-.28l-.125-.97q-.28-2.702-2.32-4.53T16.11 6.204q-2.75 0-4.773 1.844t-2.29 4.578l-.093.828q0 .313-.328.313l-.875.11q-2.077.17-3.49 1.726T2.844 19.25q0 2.126 1.508 3.712t3.633 1.695q.28 0 .28.297v2.22q0 .28-.28.28-3.344-.11-5.664-2.5T.002 19.25zm10.61 6.78q0-.562.397-.968t.977-.406.977.406.4.97q0 .593-.4 1.007t-.976.413-.977-.414-.398-1.01zm0 6.048q0-.594.405-1 .39-.375.97-.375t.976.39.4.985-.4.984-.976.39-.977-.39-.398-.984zm5.312-2.828q0-.578.422-1.03.406-.407.953-.407.578 0 1.008.43t.43 1.008-.422.993-1.016.414q-.563 0-.97-.414t-.405-.992zm0-6.03q0-.58.422-1 .438-.407.953-.407.594 0 1.016.414t.422.992-.422.976-1.016.398q-.563 0-.97-.398t-.405-.977zm0 12.124q0-.563.422-1.016.406-.406.953-.406.594 0 1.016.422t.422 1-.422.977-1.016.4q-.563 0-.97-.4t-.405-.976zm5.375-9.313q0-.546.422-.96t1-.414.976.406.398.97q0 .593-.398 1.007t-.977.413q-.595 0-1.01-.422t-.413-1zm0 6.048q0-.547.422-1 .405-.375 1-.375t.983.39.39.985-.39.984-.984.39-1.01-.397-.413-.977z" fill="#FFF" fill-rule="evenodd"/></svg>