<svg xmlns="http://www.w3.org/2000/svg" width="26" height="32" viewBox="0 0 26 32"><path d="M0 18.64q0-.562.39-.93t1.064-.366h9.516q.672 0 1.063.367t.39.93q0 .69-.382 1.07t-1.07.384H1.456q-.672 0-1.063-.383t-.39-1.07zm0-9.86q0-.562.39-.92t1.064-.36h4.938q.672 0 1.07.36t.398.92q0 .673-.398 1.07t-1.07.4H1.454q-.672 0-1.063-.392T0 8.78zm1.64 14.783q0-.547.462-1.008t1.008-.46q.64 0 1.04.444t.397 1.022q0 .688-.383 1.078t-1.055.39q-.58 0-1.024-.405t-.445-1.063zm2.376-9.875q0-.578.367-1.023t.898-.445q.657 0 1.064.445t.406 1.023q0 .688-.39 1.078t-1.08.39q-.562 0-.913-.397t-.352-1.07zm1.64 9.875q0-.578.406-1.023t1.063-.445h6.39l1.47 1.47q0 .655-.445 1.062t-1.023.406h-6.39q-.69 0-1.08-.398t-.39-1.07zm2.203-9.875q0-.547.46-1.008t1.008-.46h6.39q.657 0 1.056.444t.398 1.023q0 .688-.39 1.078t-1.064.39h-6.39q-.58 0-1.024-.405t-.445-1.063zM9.124 8.78q0-.562.398-.92t1.07-.36h9.516q.562 0 1.015.375t.453.906q0 .657-.445 1.064t-1.023.406h-9.516q-.688 0-1.078-.398t-.39-1.07zm4.39 9.86q0-.53.454-.913t1.015-.383 1.016.383.454.914q0 .657-.445 1.056t-1.024.398-1.023-.398-.445-1.055zm2.563 4.923q0-.578.398-1.023t1.055-.445h3.11q.656 0 1.055.438t.398 1.03q0 .69-.383 1.08t-1.07.39h-3.11q-.67 0-1.062-.39t-.39-1.08zm1.453-4.922q0-.53.454-.913T19 17.344h5.11q.546 0 .905.375t.36.92q0 .673-.353 1.064t-.914.39h-5.11q-.577 0-1.022-.397t-.445-1.055zm.736-4.952q0-.547.46-1.008t1.01-.46H23q.532 0 .907.452t.375 1.016q0 .672-.36 1.07t-.92.398h-3.267q-.578 0-1.023-.406t-.445-1.063zm4.562-4.907q0-.546.367-.913t.914-.367q.67 0 1.07.36t.397.92q0 .673-.398 1.07t-1.07.4q-.564 0-.923-.4t-.36-1.07z" fill="#FFFFFF" fill-rule="evenodd" /></svg>