<svg xmlns="http://www.w3.org/2000/svg" width="41" height="32"><path d="M0 26.078q0-.61.422-1.016t1.047-.406h31.108q.625 0 1.023.398t.4 1.023q0 .578-.415.97t-1.008.39H1.467q-.624 0-1.046-.39t-.42-.97zm4.36-5.234q0-.61.437-1 .375-.375.984-.375h31.126q.578 0 .97.397t.39.977q0 .594-.39 1.008t-.97.414H5.78q-.593 0-1.007-.422t-.414-1zm.218-3.97q0 .22.25.22h2.39q.157 0 .33-.266.593-1.297 1.772-2.125t2.586-.938l.922-.125q.28 0 .28-.297l.11-.828q.266-2.703 2.29-4.508t4.74-1.805q2.704 0 4.712 1.78t2.29 4.47l.124.953q0 .28.328.28h2.656q1.61 0 2.93.86t1.96 2.28q.173.267.345.267h2.39q.298 0 .235-.375-.734-2.563-2.906-4.188t-4.953-1.626h-.532Q29 7.576 26.336 5.46T20.25 3.34q-3.5 0-6.22 2.195t-3.483 5.602q-2.125.5-3.727 2.015T4.593 16.78v-.063q-.016.047-.016.156zM7.266 31.19q0-.594.438-.984.375-.375 1-.375h31.14q.595 0 1.01.39t.413.97q0 .593-.422 1.015t-1 .422H8.705q-.58 0-1.01-.43t-.43-1.008z" fill="#FFF" fill-rule="evenodd"/></svg>