<svg xmlns="http://www.w3.org/2000/svg" width="35" height="32" viewBox="0 0 35 32"><path d="M0 17.03q0-.593.422-1.015.453-.422 1-.422h3.406q.578 0 .96.422t.384 1.016-.383 1.01-.962.413H1.422q-.578 0-1-.422t-.422-1zM4.766 5.517q0-.578.39-1.016.5-.422 1.064-.422.53 0 .984.422L9.58 6.938q.405.375.405.984 0 .594-.398.992t-.992.398q-.61 0-.984-.406L5.16 6.53q-.39-.42-.39-1.015zM5.03 21.03q0-.562.392-.92t1.063-.36H16q.673 0 1.07.36t.4.92q0 .673-.392 1.07T16 22.5H6.484q-.672 0-1.063-.392t-.39-1.078zm1.642 4.923q0-.547.46-1t1.01-.453q.655 0 1.054.438t.398 1.016q0 .688-.39 1.078t-1.064.39q-.578 0-1.023-.405t-.445-1.063zm2.36-8.437v-.11q.077-3.14 2.18-5.468t5.163-2.813h.078q.484-.094 1.266-.094t1.265.095h.063q3.063.484 5.164 2.813t2.18 5.47v.108q0 .406-.375.406h-1.89q-.298 0-.423-.156t-.125-.297q-.095-2.33-1.798-3.946t-4.063-1.617-4.064 1.617-1.797 3.945q0 .14-.134.296t-.43.156h-1.89q-.376 0-.376-.406zm1.67 8.437q0-.578.4-1.016t1.054-.438h6.39q.548 0 1.01.452t.46 1q0 .656-.445 1.063t-1.022.406h-6.39q-.673 0-1.064-.39t-.39-1.078zm5.58-21.797V.766q0-.595.42-1.017t1-.423 1 .422.423 1.015v3.39q0 .58-.414.97t-1.007.39-1.008-.39-.414-.97zm2.265 16.875q0-.53.453-.905t1.016-.375 1.016.375.453.906q0 .657-.445 1.064t-1.023.406-1.023-.406-.445-1.063zm2.562 4.923q0-.578.405-1.016t1.063-.438h3.094q.656 0 1.055.437t.398 1.016q0 .688-.383 1.078t-1.07.392h-3.094q-.672 0-1.07-.39t-.398-1.08zm1.468-4.922q0-.53.445-.905t1.008-.375h5.11q.547 0 .906.367t.36.914q0 .673-.353 1.07t-.914.4h-5.11q-.578 0-1.016-.407t-.438-1.063zm2.906-13.108q0-.625.375-.984L28.233 4.5q.453-.422.984-.422.578 0 1 .422t.422 1.016q0 .61-.406 1.016l-2.438 2.375q-.453.406-1 .406-.563 0-.938-.398t-.375-.992zm3.766 9.11q0-.58.406-1.017.422-.422.953-.422h3.374q.578 0 1.008.43t.43 1.008-.43 1-1.008.423H30.61q-.58 0-.97-.414t-.39-1.01z" fill="#FFFFFF" fill-rule="evenodd" /></svg>