<svg xmlns="http://www.w3.org/2000/svg" width="38" height="32" viewBox="0 0 38 32"><path d="M0 26.016q0-.625.422-1.047.438-.407 1-.407h9.03q1.845 0 3.15 1.32t1.304 3.164q0 1.86-1.297 3.164t-3.157 1.306-3.172-1.313q-.39-.39-.39-1t.383-1.008 1.008-.398q.58 0 1.017.406.5.484 1.156.484t1.14-.477.485-1.164q0-.656-.484-1.133t-1.14-.477H1.42q-.578 0-1-.414T0 26.014zm0-5.063q0-.61.422-1.03.438-.407 1-.407H19q.656 0 1.14-.484t.485-1.156-.484-1.148T19 16.25q-.688 0-1.14.47-.454.375-1.064.375t-.992-.383-.383-.992q0-.625.376-1.016 1.266-1.266 3.203-1.266 1.858 0 3.163 1.297t1.305 3.14-1.305 3.15T19 22.328H1.42q-.593 0-1.007-.4T0 20.955zm3.578-3.937q0 .203.266.203H6.25q.203 0 .36-.25.562-1.36 1.75-2.25t2.655-1l.875-.126q.328 0 .328-.28l.125-.86q.266-2.703 2.29-4.54t4.772-1.835q2.766 0 4.797 1.82t2.313 4.554l.125.984q0 .28.28.28h2.704q2.266 0 3.883 1.595t1.617 3.828-1.617 3.83-3.883 1.593H18.108q-.313 0-.313.28v2.314q0 .28.313.28h11.516q2.266 0 4.18-1.108t3.03-3.024 1.118-4.164q0-2.266-1.117-4.172t-3.03-3.016-4.18-1.11h-.517q-.78-3.327-3.492-5.452t-6.21-2.125q-3.532 0-6.25 2.195T9.7 11.08q-2.14.5-3.797 2.054t-2.297 3.68v.063q-.03.078-.03.14z" fill="#FFF" fill-rule="evenodd"/></svg>