<svg xmlns="http://www.w3.org/2000/svg" width="36" height="32"><path d="M0 19.172q0-2.89 1.773-5.125t4.57-2.86Q6.92 8.61 8.68 6.68t4.21-2.758q1.547-.53 3.22-.53 2.03 0 3.92.796.704-1.172 1.65-2.03T23.63.837t1.96-.68 1.876-.22q.953 0 2.047.266l1.36.422q.343.14.233.375l-.234 1q-.172.782-.172 1.44 0 .78.242 1.577t.727 1.563T33 7.97t1.92.954l1.032.36q.25.062.25.265 0 .046-.03.108l-.298 1.125q-.688 2.688-2.5 4.28 1 1.75 1.078 3.735.016.125.016.375 0 2.234-1.11 4.133t-3.007 3.008-4.132 1.11H8.202q-2.234 0-4.125-1.11t-2.984-3.008T0 19.173zm2.844 0q0 2.22 1.594 3.844t3.766 1.625H26.22q2.22 0 3.805-1.608t1.586-3.86q0-2.187-1.593-3.772t-3.797-1.586h-2.97l-.17-1.25q-.25-2.53-2.095-4.32t-4.39-1.992q-.08 0-.243-.016t-.242-.016q-1.266 0-2.563.484v-.03q-1.828.702-3.07 2.28t-1.492 3.61l-.11 1.202-1.14.047q-2.11.25-3.5 1.766t-1.39 3.593zM22.422 5.656q2.656 2.266 3.28 5.297h.532q3.11 0 5.28 1.97.83-.782 1.267-1.782-2.28-1.077-3.593-3.28t-1.313-4.64v-.407q-.125-.016-.406-.016-1.453-.03-2.828.727t-2.22 2.133z" fill="#FFF" fill-rule="evenodd"/></svg>