<svg xmlns="http://www.w3.org/2000/svg" width="45" height="32"><path d="M0 19.172q0 2.25 1.102 4.156t2.992 3.008 4.125 1.102h18.046q2.234 0 4.14-1.102t3.017-3.008 1.11-4.156q0-1.656-.704-3.328 1.905-2.328 1.905-5.516 0-1.78-.688-3.398t-1.86-2.79T30.4 2.283 27 1.594q-3.702 0-6.468 2.906-1.938-1.094-4.5-1.094-3.516 0-6.22 2.18t-3.468 5.586q-2.797.64-4.57 2.875T0 19.172zm2.844 0q0-2.094 1.398-3.61t3.508-1.765l.828-.047q.313 0 .313-.297l.11-.906q.344-2.703 2.344-4.523t4.688-1.82q2.75 0 4.79 1.828t2.288 4.516l.125.97q.063.28.344.28h2.687q2.203 0 3.797 1.594t1.594 3.78q0 2.267-1.586 3.868t-3.805 1.602H8.22q-2.188 0-3.78-1.617t-1.595-3.852zM14.016-1.28q0 .608.406 1.046L15.516.83q.625.468 1.063.42.515 0 .92-.43t.407-1.038-.438-.984l-.985-1.094q-.453-.406-1.016-.406-.61 0-1.032.414t-.422 1.008zm8.906 7.374Q24.656 4.422 27 4.422q2.47 0 4.195 1.72t1.727 4.187q0 1.562-.844 3.062-2.422-2.39-5.813-2.39h-.53q-.626-2.72-2.814-4.907zm2.703-8.797q0 .64.39 1.03T27-1.28q.64 0 1.03-.392t.392-1.03V-6.11q0-.593-.398-.983T27-7.483q-.593 0-.983.39t-.39.984v3.407zm9.203 3.828q0 .64.375 1.03.53.407 1.03.407.454 0 .985-.406l2.39-2.39q.407-.454.407-1.064 0-.594-.406-1t-.985-.406q-.594 0-.97.406l-2.45 2.39q-.375.454-.375 1.032zm1.328 19.72q0 .593.422 1.046l1.078 1.048q.375.406.97.406t.99-.414.4-1.04q0-.562-.407-.968l-1.08-1.078q-.405-.406-.952-.406-.594 0-1.008.406t-.414 1zm2.438-10.517q0 .578.438.97.406.405 1.016.405h3.406q.578 0 .96-.39t.384-.985-.383-1.008-.96-.414h-3.407q-.594 0-1.023.422t-.43 1z" fill="#FFF" fill-rule="evenodd"/></svg>