<svg xmlns="http://www.w3.org/2000/svg" width="35" height="32"><path d="M0 15.375q0-.61.422-1.03.438-.407 1-.407h3.406q.578 0 .96.422t.384 1.016-.383 1.008-.962.414H1.422q-.578 0-1-.422t-.422-1zm4.766 11.547q0-.578.39-1.016L7.61 23.53q.375-.39.984-.39.594 0 .992.375t.398.953q0 .61-.406 1.063l-2.375 2.376q-1.016.797-2.047 0-.39-.422-.39-.984zm0-23.078q0-.578.39-1.016.485-.406 1.064-.406.547 0 .984.406L9.58 5.28q.405.376.405.985 0 .594-.398.992t-.992.398q-.61 0-.984-.406L5.16 4.873q-.39-.422-.39-1.03zm4.25 11.53q0-2.327 1.172-4.335t3.18-3.18 4.336-1.173q1.75 0 3.36.695t2.772 1.86 1.852 2.772.688 3.36q0 2.343-1.164 4.343t-3.164 3.164-4.344 1.165-4.344-1.164-3.172-3.163-1.172-4.344zm2.828 0q0 2.44 1.71 4.165t4.15 1.726 4.163-1.727 1.727-4.165q0-2.406-1.727-4.11t-4.164-1.702q-2.422 0-4.14 1.703t-1.72 4.11zM16.28 28.33q0-.594.415-1t1.008-.406q.61 0 1.016.406t.405 1v3.313q0 .61-.414 1.032t-1.007.422-1.008-.422-.414-1.03v-3.314zm0-25.828V-.906q0-.578.423-1t1-.422 1 .422.422 1V2.5q0 .578-.414.96t-1.007.384-1.008-.383-.414-.96zm9.204 21.97q0-.58.375-.94.374-.39.937-.39.61 0 1 .39l2.438 2.376q.406.438.406 1.016t-.405.984q-1 .78-2 0L25.86 25.53q-.375-.42-.375-1.062zm0-18.204q0-.625.375-.984l2.374-2.453q.438-.407.984-.407.594 0 1.008.422t.414 1q0 .625-.406 1.03l-2.438 2.376q-.453.407-1 .407-.563 0-.938-.398t-.375-.993zm3.766 9.11q0-.595.406-1.032.406-.406.953-.406h3.374q.578 0 1.008.43t.43 1.008-.43 1-1.008.422H30.61q-.58 0-.97-.414t-.39-1.008z" fill="#FFF" fill-rule="evenodd"/></svg>