<svg xmlns="http://www.w3.org/2000/svg" width="40" height="32" viewBox="0 0 40 32"><path d="M0 13.375q0 .672.47 1.11t1.202.437h2.813q.672 0 1.148-.445t.477-1.102q0-.72-.47-1.188t-1.155-.47H1.672q-.734 0-1.203.462T0 13.373zm2.953 10.313q0 2.422 1.766 4.195t4.187 1.773h11.438q2.422 0 4.148-1.75t1.727-4.22q0-1.202-.344-2.046 2.078-1.328 3.29-3.54t1.21-4.726q0-2.03-.797-3.883t-2.134-3.187-3.188-2.133-3.867-.797q-2.733 0-5.038 1.344t-3.625 3.64-1.32 5.017v.563q-2.5 1.422-3.297 4.156-1.89.594-3.023 2.11t-1.133 3.483zM5.547.078q0 .703.438 1.125l2.688 2.813q1.172.89 2.344 0 .47-.47.47-1.172 0-.672-.47-1.172l-2.75-2.734q-.53-.484-1.156-.484-.702 0-1.132.47T5.548.078zm.703 23.61q0-1.047.672-1.797t1.703-.843l1.03-.14q.33 0 .33-.376l.155-.937q.172-1.438 1.22-2.406t2.468-.97q1.453 0 2.523.97t1.243 2.406l.14 1.078q.157.376.407.376h2.203q1.078 0 1.867.78t.79 1.86q0 1.125-.79 1.922t-1.867.797H8.905q-1.125 0-1.89-.797t-.767-1.922zm7.375-10.657q.172-2.733 2.11-4.593t4.655-1.86q2.78 0 4.734 1.985t1.953 4.813q0 1.75-.852 3.242T23.92 19.03q-1.47-1.218-3.39-1.218-.735-2.188-2.564-3.484t-4.14-1.297h-.204zm5.14-14.577q0 .688.478 1.164t1.148.477q.69 0 1.165-.477t.477-1.164v-3.906q0-.656-.477-1.102T20.39-7q-.67 0-1.147.445t-.477 1.102v3.906zm10.532 25.375q0 .672.453 1.172l2.734 2.703q1.047 1.063 2.344 0 .438-.422.438-1.125 0-.672-.438-1.11l-2.813-2.796q-.453-.422-1.14-.422t-1.134.453-.444 1.125zm0-21.015q0 .703.453 1.203.453.453 1.125.453.688 0 1.14-.454l2.814-2.813q.437-.422.437-1.125 0-.688-.477-1.156t-1.164-.47q-.656 0-1.14.485L29.75 1.67q-.452.454-.452 1.142zm4.312 10.562q0 .672.468 1.11t1.203.437h2.814q.672 0 1.148-.445t.477-1.102q0-.72-.47-1.188t-1.156-.47H35.28q-.733 0-1.202.462t-.47 1.194z" fill="#FFFFFF" fill-rule="evenodd" /></svg>