<svg xmlns="http://www.w3.org/2000/svg" width="36" height="32" viewBox="0 0 36 32"><path d="M0 15.594q0-.594.453-1.016.422-.422 1.03-.422h3.44q.593 0 1.007.422t.414 1.016q0 .625-.414 1.047t-1.008.423H1.484q-.625 0-1.055-.422T0 15.595zM4.875 3.906q0-.578.406-1.03.47-.423 1.095-.423.53 0 .984.422l2.42 2.47q.423.39.423 1 0 .593-.414 1.007t-.993.414q-.64 0-1.016-.422l-2.5-2.406q-.405-.438-.405-1.03zM9.22 15.594q0-1.766.71-3.398t1.906-2.813 2.836-1.89 3.422-.712q2.39 0 4.438 1.196t3.234 3.227 1.188 4.39q0 .376-.047.704-.703-.422-1.61-.422-.608 0-1.202.25.016-.172.016-.53 0-2.44-1.765-4.165t-4.25-1.727q-2.47 0-4.227 1.727t-1.758 4.164v.297q-.734.048-1.406.423-.016.016-.172.125t-.313.227-.392.313-.438.398q-.172-.797-.172-1.78zm.046 6.094v-.25q-.016-.234.03-.547.126-.89.704-1.702.328-.406.453-.516.016-.047.063-.094l.063-.063q.062-.03.202-.172.047-.063.133-.125t.117-.094q.125-.125.234-.172l.28-.188q.36-.234.83-.234h.046q.25 0 .438.047.078.03.22.11v.015q.358.156.57.477t.21.694q0 .422-.234.703-.156.22-.375.39-.046.017-.1.048t-.07.03l-.095.064q-.094.077-.164.14t-.18.18-.187.227-.148.258-.086.29v.25q.093.374.187.593.172.344.563.734.03.047.406.422 2.156 1.953 2.016 4.172-.047.75-.352 1.445t-.71 1.173-.657.71-.422.345q-.015.016-.093.07t-.125.07q-.203.094-.36.11-.218.03-.327.03-.75 0-1.188-.5-.36-.438-.297-.984t.547-.89l.03-.032q.032-.03.08-.07t.116-.102.14-.14.142-.173.14-.195.142-.227.117-.25.078-.273.03-.29q.048-.5-.25-1-.124-.265-.374-.546-.172-.203-.25-.266-.234-.28-.25-.297-.047-.03-.117-.094t-.1-.08q-.376-.343-.564-.593-.313-.39-.406-.53-.484-.657-.656-1.298-.11-.36-.125-.532 0-.047-.032-.133t-.03-.148zm6.468-.563q0-.14.016-.234.063-.546.328-1.07t.586-.882.625-.633.522-.414l.203-.124q.375-.234.828-.234.28 0 .5.047.016 0 .086.038t.1.07q.032 0 .048.016.016 0 .125.078.5.297.625.906 0 .047.008.11t.008.077q0 .078-.03.195t-.032.148q-.172.563-.703.828-.83.547-.876 1.156-.016.203 0 .36.063.296.28.655.282.406.407.53.392.392.47.454.313.282.78.845 1.36 1.625 1.235 3.328-.047.75-.352 1.453t-.71 1.164-.673.71-.422.345l-.203.14q-.266.095-.344.11-.28.03-.327.03h-.047q-.203 0-.313-.03-.047 0-.133-.023t-.117-.023q-.016 0-.047-.017t-.063-.04-.047-.022q-.375-.265-.438-.343-.39-.453-.313-.992t.563-.883l.047-.063q.063-.048.148-.134l.195-.195.21-.265.196-.32.148-.367.07-.406q.03-1-1.156-2.11-.47-.42-.734-.718-1.39-1.64-1.28-3.25zM16.64 2.53V-.92q0-.61.43-1.03t1.024-.423q.61 0 1.03.422t.423 1.03v3.454q0 .595-.422.985t-1.03.39q-.595 0-1.024-.39t-.43-.984zm5.594 18.36q.063-.546.328-1.07t.586-.882.625-.633.508-.414l.22-.124.172-.125q.28-.108.625-.108.844 0 1.28.64.126.173.173.376.03.063.03.14v.19q0 .78-.75 1.17-.796.532-.874 1.157-.094.844 1.14 2 2.19 1.938 2.048 4.172-.047.75-.352 1.445t-.72 1.172-.655.71-.414.345q-.406.25-.688.265-.078.016-.25.016-.75 0-1.156-.5-.376-.437-.314-.983t.53-.89q.08-.032.298-.235t.477-.64.29-.876q.047-1-1.172-2.11-1.03-.905-1.563-1.937-.563-1.095-.422-2.267zm3.813-14.546q0-.625.375-1l2.438-2.47q.453-.42 1.016-.42.594 0 1.023.43t.43 1.022q0 .625-.44 1.03l-2.468 2.407q-.453.422-1.016.422-.578 0-.97-.414t-.39-1.007zm3.844 9.25q0-.547.44-1.016.39-.422.968-.422h3.438q.594 0 1.04.43t.444 1.008q0 .61-.438 1.04t-1.047.43h-3.438q-.61 0-1.008-.423t-.4-1.046z" fill="#FFF" fill-rule="evenodd"/></svg>