<svg xmlns="http://www.w3.org/2000/svg" width="35" height="32"><path d="M0 19.188q0 2.766 1.648 4.953t4.273 2.985l-1.077 2.797q-.078.36.234.36h3.547L6.89 36.577h.47l6.608-8.703q.094-.11.03-.227t-.233-.117H10.14l4.125-7.733q.156-.344-.234-.344H9.126q-.234 0-.375.234l-1.797 4.78q-1.78-.452-2.945-1.937t-1.164-3.344q0-2.078 1.406-3.602t3.5-1.773l.875-.124q.328 0 .328-.28l.125-.86q.25-2.703 2.273-4.53t4.76-1.83q2.718 0 4.757 1.83t2.336 4.53l.094.97q0 .296.313.296H26.3q2.266 0 3.867 1.578t1.602 3.797q0 2.125-1.484 3.68t-3.656 1.71q-.328 0-.328.314v2.282q0 .28.327.28 1.625-.046 3.102-.733t2.538-1.79 1.688-2.61.625-3.132q0-2.25-1.116-4.148t-3.023-3-4.14-1.102h-.53Q24.94 7.61 22.252 5.5t-6.14-2.11q-3.532 0-6.267 2.19t-3.5 5.593q-2.75.64-4.547 2.883T0 19.19zm13.594 16.437q0 .39.258.773t.773.54q.344.077.422.077.22 0 .625-.172.53-.234.703-.875l.47-1.75q.155-.547-.134-1.047t-.882-.67q-.547-.157-1.055.132t-.68.883l-.453 1.672q-.047.422-.047.438zm2.234-7.953q0 .36.258.727t.758.554q.563.188 1.063-.078T18.58 28l.5-1.733q.155-.547-.142-1.055t-.89-.68q-.564-.156-1.08.133t-.687.867l-.405 1.688q-.047.422-.047.453zm4.703 2.75q0 .422.274.844t.79.578q.062 0 .194.03t.195.032q.328 0 .625-.125.47-.17.688-.952l.422-1.688q.172-.578-.102-1.102t-.836-.695q-.625-.156-1.133.14t-.617.892l-.453 1.72q-.047.14-.047.327zm2.267-7.984q-.016.39.25.78t.813.626q.188.094.438.094.266 0 .563-.14.517-.25.735-.954l.484-1.72q.046-.327.046-.358 0-.422-.273-.82t-.82-.555q-.063 0-.188-.03t-.188-.03q-.422 0-.813.257t-.547.805l-.453 1.688q-.047.188-.047.36z" fill="#FFF" fill-rule="evenodd"/></svg>