<svg xmlns="http://www.w3.org/2000/svg" width="45" height="32"><path d="M0 19.172q0 3.328 2.32 5.72t5.664 2.546q.28 0 .28-.28v-2.282q0-.297-.28-.297-2.172-.173-3.656-1.728t-1.484-3.68q0-2.094 1.414-3.648t3.492-1.727l.875-.125q.328 0 .328-.28l.094-.845q.266-2.703 2.29-4.523t4.772-1.82q2.718 0 4.74 1.813t2.32 4.53l.11.97q0 .28.313.28h2.672q2.266 0 3.867 1.58t1.602 3.796q0 2.125-1.484 3.68t-3.656 1.727q-.328 0-.328.297v2.28q0 .282.328.282 3.328-.11 5.633-2.517t2.305-5.75q0-1.688-.78-3.453 1.983-2.36 1.983-5.453 0-1.78-.695-3.398t-1.867-2.79-2.79-1.86T27 1.53q-3.858 0-6.468 2.89-2.14-1.03-4.422-1.03-3.547 0-6.273 2.172t-3.492 5.61q-2.75.64-4.547 2.882T0 19.174zm12.5 18.78h.5l8.86-13.077q.093-.11.038-.227t-.227-.117h-3.64l3.828-7.015q.188-.36-.234-.36h-4.906q-.203 0-.36.235l-3.593 9.53q-.063.345.234.345h3.608zm1.47-39.296q0 .625.405 1.03L15.47.767q1.046.796 2.015 0Q17.89.31 17.89-.3q0-.578-.405-.984L16.422-2.36q-.47-.422-1.03-.422-.58 0-1 .422t-.423 1.016zm8.905 7.375Q24.578 4.33 27 4.33q2.438 0 4.156 1.734t1.72 4.203q0 1.516-.845 3.016-2.437-2.343-5.765-2.343h-.516q-.673-2.844-2.876-4.906zm2.703-8.81q0 .624.398 1.03T27-1.344q.593 0 .983-.398t.39-1.04v-3.405q0-.594-.39-.984T27-7.563t-1.01.39-.413.985v3.406zm9.188 3.858q0 .578.453 1t.92.422q.407 0 1.032-.422l2.406-2.39Q40-.767 40-1.36q0-.61-.414-1.016t-1.008-.406q-.547 0-.97.422L35.22.03q-.453.485-.453 1.048zm1.36 19.703q0 .58.405 1.017l1.08 1.094q.405.407.968.407.594 0 1.008-.422t.413-1.05q0-.563-.422-.953l-1.03-1.094q-.47-.39-1.032-.39-.578 0-.984.406t-.406.984zm2.42-10.514q0 .547.44.953.42.42 1 .42h3.405q.595 0 1.017-.397t.422-.977q0-.594-.43-1.016t-1.01-.422h-3.405q-.578 0-1.008.422t-.43 1.016z" fill="#FFF" fill-rule="evenodd"/></svg>