<svg xmlns="http://www.w3.org/2000/svg" width="25" height="32" viewBox="0 0 25 32"><path d="M0 15.016q0-.484.328-.828t.797-.344q.484 0 .813.344t.328.828q0 .47-.336.797t-.805.328-.797-.335-.328-.79zm3.297 0q0-.484.328-.828t.797-.344h5.375L6 10.047q-.344-.313-.344-.79T6 8.438t.813-.343.813.344l3.78 3.78V6.876q0-.484.345-.828t.83-.344q.468 0 .796.344t.328.828v5.39l3.813-3.827q.344-.344.805-.344t.82.344q.297.344.297.82t-.298.79l-3.797 3.796h5.375q.453 0 .79.344t.335.828q0 .453-.336.79t-.79.335h-5.39l3.812 3.814q.297.313.297.78t-.298.814q-.36.344-.82.344t-.805-.344l-3.813-3.828v5.406q0 .484-.328.82t-.797.336q-.485 0-.83-.336t-.343-.82v-5.36l-3.78 3.782q-.345.344-.814.344T6 21.548t-.344-.813.344-.78l3.828-3.814H4.422q-.47 0-.797-.335t-.328-.79zm.03 8.07q0-.46.345-.805.313-.343.79-.343t.82.344.343.806-.344.805-.82.345-.788-.344q-.344-.343-.344-.804zm0-16.188q0-.46.345-.805.313-.344.79-.344t.82.343.343.805-.344.82q-.343.344-.82.344t-.788-.344q-.344-.36-.344-.82zm8.08 19.524q0-.453.343-.79t.828-.335q.47 0 .797.336t.328.79q0 .483-.328.82t-.797.335q-.484 0-.828-.336t-.344-.82zm0-22.86q0-.483.343-.82t.828-.335q.47 0 .797.336t.328.82q0 .453-.328.79t-.797.335q-.484 0-.828-.336t-.344-.79zm8.11 19.524q0-.46.343-.805.313-.343.79-.343t.82.344.343.806-.344.805-.82.345-.79-.344q-.344-.343-.344-.804zm0-16.188q0-.46.343-.805.313-.344.79-.344t.82.343.343.805-.344.82q-.345.344-.82.344t-.79-.344q-.344-.36-.344-.82zm3.342 8.118q0-.484.335-.828t.82-.344q.453 0 .79.344t.335.828q0 .453-.336.79t-.79.335q-.483 0-.82-.335t-.335-.79z" fill="#FFFFFF" fill-rule="evenodd" /></svg>