<svg xmlns="http://www.w3.org/2000/svg" width="36" height="32"><path d="M0 19.25q0-2.89 1.805-5.156t4.57-2.906Q7.14 7.766 9.883 5.57t6.29-2.194q2.03 0 3.67.672 0 .016.017.03 2.094.814 3.688 2.58h.047q1.688 1.827 2.28 4.358h.517q2.703 0 4.72 1.438v-.016q1.327.89 2.226 2.22t1.21 2.905q.095.53.126.86v.093q0 .016.023.28t.023.407v.047q0 2.203-1.063 4.086t-2.898 3.016-4.04 1.195q-.328 0-.328-.28V25.03q0-.313.328-.313 2.14-.11 3.633-1.704t1.492-3.766q0-2.22-1.61-3.82t-3.843-1.602h-2.688q-.297 0-.297-.28l-.125-.985q-.25-2.5-2.11-4.313-.015-.016-.038-.047t-.04-.047q-.03-.03-.062-.03 0-.048-.03-.048-1.814-1.656-4.267-1.875-.172-.016-.563-.016-2.75 0-4.773 1.836t-2.29 4.54l-.125.983q-.078.234-.375.234l-.844.047q-2.11.25-3.516 1.78T2.844 19.25v.062h.047q.017 1.188.51 2.25t1.335 1.813q.516.453 1.234.797v.016q1 .484 2.015.53.28 0 .28.298v2.234q0 .28-.28.28-1.297-.077-2.47-.5v.017q-2.077-.72-3.522-2.39T.14 20.81v-.047q-.015-.016-.015-.063Q0 20.062 0 19.25zm9.172 11.953q0-.078.03-.21t.032-.196l.156-.984q.172-.594.68-.883t1.133-.133q.563.172.844.688t.11 1.047l-.235 1q-.25 1.094-1.266 1.094-.078 0-.227-.03t-.228-.032q-.516-.156-.773-.547t-.26-.813zm1.234-4.906q0-.594.39-.984t.985-.39.985.39.39.984q0 .578-.39.97t-.984.39q-.577 0-.952-.406-.422-.39-.422-.952zm2.735 9.984q0-.093.064-.374l.22-.984q.17-.563.687-.852t1.048-.117q.578.11.875.61t.14 1.14l-.218.984q-.25 1.016-1.328 1.016-.188 0-.406-.047-.546-.156-.812-.555t-.266-.82zm1.313-4.842q0-.578.39-.97t.985-.39.984.39.39.97q0 .594-.39.984t-.984.39q-.563 0-.97-.405t-.405-.97zm1.03-3.782q0-.25.048-.453l.376-1.5q.172-.578.688-.883t1.063-.133q.594.172.883.672t.117 1.046l-.438 1.5q-.204.688-.69.938t-1.062.094q-.5-.094-.758-.5t-.227-.78zm4.61 3.563q0-.08.024-.22t.023-.188l.156-.984q.172-.594.68-.883t1.133-.133q.562.172.85.688t.118 1.047l-.234 1q-.25 1.094-1.266 1.094-.078 0-.234-.03t-.234-.03q-.5-.157-.758-.548t-.258-.813zm1.235-4.907q0-.594.39-.984t.985-.392.984.39.39.985q0 .578-.39.97t-.984.39-.97-.406q-.405-.375-.405-.953z" fill="#FFF" fill-rule="evenodd"/></svg>