<svg xmlns="http://www.w3.org/2000/svg" width="38" height="32" viewBox="0 0 38 32"><path d="M0 13.422q0-2.875 1.797-5.125t4.563-2.89q.78-3.423 3.516-5.618t6.266-2.196q3.453 0 6.148 2.14t3.508 5.485h.547q2.25 0 4.156 1.085t3.017 2.977 1.11 4.14q0 .5-.048 1.017 1.624 1.28 2.562 3.18t.938 4.054q0 1.922-.742 3.648t-1.992 2.96-2.977 1.962-3.618.727q-1.875 0-3.594-.733t-2.96-1.977-1.985-2.96-.742-3.595H8.003q-3.344-.156-5.672-2.547T.002 13.424zm2.844 0q0 2.172 1.508 3.773T8 18.905h18.656q2.14-.108 3.656-1.71t1.516-3.773q0-2.188-1.625-3.79t-3.86-1.6h-2.702q-.28 0-.28-.282l-.125-.97q-.28-2.702-2.328-4.53T16.14.422q-2.733 0-4.757 1.828t-2.29 4.53l-.124.97q0 .28-.33.28h-.874q-2.094.25-3.508 1.782t-1.414 3.61zm18.765 8.516q.155 2.813 2.288 4.72t4.852 1.905q1.5 0 2.828-.586t2.234-1.555 1.422-2.21.516-2.54q0-1.22-.492-2.453t-1.414-2.25q-.97 2.062-2.906 3.358t-4.28 1.375h-4.814q0 .047.03.203-.187.03-.265.03z" fill="#FFFFFF" fill-rule="evenodd" /></svg>