<svg xmlns="http://www.w3.org/2000/svg" width="45" height="32"><path d="M0 19.14q0 2.798 1.664 5t4.305 2.94l-1.095 2.827q-.125.36.234.36h3.546L6.28 37.28h.485l7.266-9.438q.095-.11.032-.227t-.234-.117h-3.656l4.156-7.75q.188-.36-.234-.36H9.156q-.234 0-.39.25L6.983 24.44q-1.797-.453-2.97-1.93t-1.17-3.367q0-2.108 1.405-3.64t3.515-1.78l.844-.048q.296 0 .374-.234l.125-.984q.265-2.703 2.288-4.54T16.17 6.08q2.72 0 4.774 1.835t2.336 4.54l.125.983q0 .28.297.28h2.688q2.234 0 3.844 1.603t1.61 3.82q0 2.173-1.493 3.774t-3.632 1.71q-.328 0-.328.298v2.234q0 .28.328.28 2.203-.062 4.04-1.194t2.897-3.016 1.063-4.086q0-1.828-.72-3.36 1.907-2.405 1.907-5.483 0-2.375-1.18-4.398t-3.203-3.204-4.398-1.18q-1.797 0-3.492.75t-2.93 2.078q-2.016-1.078-4.53-1.078-3.548 0-6.29 2.195T6.374 11.08q-2.766.64-4.57 2.906T0 19.14zm13.64 16.532q0 .375.267.78t.766.564q.28.063.422.063.375 0 .64-.126.532-.203.72-.953l.453-1.718q.156-.625-.14-1.117t-.892-.617q-.516-.172-1.03.125t-.704.86l-.422 1.733q-.078.344-.078.406zm.39-37.016q0 .578.423 1L15.53.75q.392.39.923.438.516.078 1.016-.375t.5-1.063q0-.578-.423-1L16.5-2.344q-.406-.406-1-.406-.625 0-1.047.406t-.422 1zm1.845 29.016q-.016.406.234.79t.796.538q.53.172 1.04-.102t.694-.93l.5-1.72q.172-.546-.133-1.054t-.898-.68q-.564-.172-1.07.117t-.68.884l-.407 1.75q-.078.344-.078.406zm4.72 2.797q0 .358.17.655.33.53.907.72.28.093.47.093.312 0 .515-.125.5-.188.75-1l.422-1.688q.17-.594-.11-1.086t-.844-.65q-.578-.17-1.086.11t-.68.844l-.47 1.734q-.046.22-.046.39zm2.28-8.032q0 .438.273.836t.82.555q.422.14 1.016-.08.5-.218.72-.952l.452-1.672q.156-.625-.133-1.117t-.883-.618q-.563-.172-1.063.102t-.672.836l-.484 1.766q-.046.328-.046.344zm.172-16.407q1.672-1.608 4.078-1.608 2.453 0 4.18 1.71t1.727 4.165q0 1.64-.78 3.016-2.407-2.406-5.86-2.406h-.516q-.734-2.97-2.828-4.875zm2.656-8.78q0 .594.414 1.016t1.008.422.992-.414.398-1.023v-3.437q0-.61-.398-1.023t-.992-.414-1.008.422-.414 1.016v3.438zM35 1.063q0 .61.39 1 .345.39.915.43t1.055-.43l2.406-2.406q.438-.406.438-1t-.438-1q-.406-.438-1-.438-.578 0-.97.437L35.392.063q-.39.39-.39 1zm1.297 19.86q0 .577.422 1l1.077 1.046q.453.42 1.03.42l.032.032q.546 0 .905-.453.438-.407.438-1 0-.58-.438-1.017l-1.03-1.03q-.454-.454-1.017-.454-.594 0-1.008.43t-.414 1.022zm2.437-10.626q0 .61.438.984.39.44 1 .44h3.438q.594 0 1.016-.415t.422-1.008-.414-.992-1.023-.398h-3.437q-.61 0-1.023.398t-.414.992z" fill="#FFF" fill-rule="evenodd"/></svg>