<svg xmlns="http://www.w3.org/2000/svg" width="35" height="32" viewBox="0 0 35 32"><path d="M0 19.188q0-2.875 1.797-5.117t4.547-2.882q.78-3.406 3.516-5.594t6.25-2.188q3.438 0 6.133 2.133t3.508 5.476h.532q2.234 0 4.14 1.086t3.017 2.97 1.108 4.116q0 2.188-1.055 4.07t-2.883 3.008-4 1.188q-.328 0-.328-.28v-2.22q0-.297.328-.297 2.125-.11 3.633-1.703t1.508-3.766-1.624-3.773-3.844-1.602h-2.688q-.297 0-.297-.28l-.125-.97q-.28-2.703-2.32-4.523T16.11 6.22q-2.734 0-4.758 1.82T9.08 12.563l-.126.89q0 .314-.328.314l-.875.047q-2.077.25-3.49 1.78T2.844 19.19q0 2.17 1.5 3.765t3.64 1.703q.282 0 .282.297v2.22q0 .28-.28.28Q4.64 27.3 2.32 24.908T0 19.188zm8.922 11.14q0-.11.063-.328l2.72-9.61q.155-.483.538-.733t.773-.25q.172 0 .406.047.594.11.898.61t.133 1.108l-2.72 9.547q-.312 1.062-1.374 1.062-.095 0-.19-.03-.14-.048-.17-.048-.548-.156-.814-.555t-.266-.82zm4.375 4.688L17.36 20.39q.11-.483.5-.733t.813-.25q.22 0 .453.047.547.156.813.648t.108 1.07L16 35.812q-.093.423-.483.72t-.844.297q-.234 0-.422-.08-.5-.124-.858-.655-.28-.438-.094-1.078zm6.875-4.64q0-.095.063-.376l2.72-9.61q.14-.483.507-.733t.773-.25q.203 0 .438.047.516.14.773.516t.258.78q0 .08-.03.228t-.032.195l-2.72 9.547q-.093.484-.468.773t-.844.29l-.406-.08q-.5-.14-.766-.538t-.266-.79z" fill="#FFF" fill-rule="evenodd"/></svg>