<svg width="36" height="48" viewBox="0 0 36 48" xmlns="http://www.w3.org/2000/svg"><path d="M18.064.14C8.294.14.37 8.13.37 17.982c0 .785.065 1.55.165 2.308.05.405.112.807.183 1.205.008.057.02.11.032.167 2.462 13.546 17.314 26.06 17.314 26.06s14.85-12.514 17.313-26.06c.012-.057.024-.11.032-.164.07-.4.135-.803.182-1.204.1-.762.165-1.526.165-2.31C35.757 8.13 27.833.138 18.064.138zm0 26.765c-4.887 0-8.847-3.994-8.847-8.922 0-4.928 3.96-8.922 8.847-8.922 4.886 0 8.846 3.995 8.846 8.923s-3.96 8.922-8.846 8.922z" fill="#EEBA85" fill-rule="evenodd"/></svg>