<svg width="22" height="48" viewBox="0 0 22 48" xmlns="http://www.w3.org/2000/svg"><path d="M2 2v18h18V2H2zm16.77 16.77H3.23V6.584h15.54V18.77zM11.07 26C6.613 26 3 29.695 3 34.25c0 .363.03.716.075 1.067.023.187.05.373.084.557.002.026.007.05.012.077C4.296 42.216 11.07 48 11.07 48s6.772-5.786 7.894-12.05l.015-.075c.03-.185.06-.37.082-.557.045-.352.075-.705.075-1.068 0-4.555-3.614-8.25-8.07-8.25zm0 12.375c-2.23 0-4.036-1.847-4.036-4.125s1.807-4.125 4.035-4.125c2.226 0 4.032 1.847 4.032 4.125s-1.806 4.125-4.034 4.125z" fill="#D95720" fill-rule="evenodd"/></svg>