<svg xmlns="http://www.w3.org/2000/svg" width="27" height="32" viewBox="0 0 27 32"><path d="M0 23.75q0-1.97 1.133-3.484t3.023-2.11q.797-2.718 3.313-4.155v-.577q0-3.64 2.304-6.414t5.836-3.43q.89-.157 1.797-.157h.047q.516 0 1.172.078.64.048 1.22.19l1.515.468q.33.172.267.438l-.22 1.172q-.187.797-.187 1.61 0 .874.273 1.788t.828 1.797 1.517 1.61 2.21 1.1l1.19.345q.28.063.28.297 0 .094-.016.125l-.296 1.14q-.14.61-.36 1.22-.374 1.094-1.17 2.28 0-.015-.017-.015-1.094 1.578-2.734 2.625.344.844.344 2.063 0 2.47-1.727 4.21t-4.148 1.743H5.97q-2.422 0-4.195-1.766T.002 23.752zm3.297 0q0 1.125.773 1.914t1.898.79H17.39q1.078 0 1.867-.798t.79-1.906q0-1.078-.79-1.867t-1.867-.79h-2.188q-.266 0-.422-.374l-.14-1.064q-.173-1.438-1.243-2.406t-2.523-.97q-1.422 0-2.46.97T7.2 19.656l-.172.922q0 .375-.313.375l-1.047.14q-1.03.095-1.703.853t-.672 1.805zm7.375-10.672h.203q2.313 0 4.148 1.305t2.57 3.492q1.938 0 3.39 1.203Q22.72 18 23.532 16.156q-2.593-1.313-4.054-3.75t-1.46-5.188v-.563q-.08 0-.204-.008t-.203-.008q-1.532 0-2.954.655T12.25 9.17l-.047-.03q-1.36 1.687-1.53 3.937z" fill="#FFFFFF" fill-rule="evenodd" /></svg>